<?xml version="1.0" encoding="UTF-8" standalone="no"?>
<svg
   xmlns:dc="http://purl.org/dc/elements/1.1/"
   xmlns:cc="http://creativecommons.org/ns#"
   xmlns:rdf="http://www.w3.org/1999/02/22-rdf-syntax-ns#"
   xmlns:svg="http://www.w3.org/2000/svg"
   xmlns="http://www.w3.org/2000/svg"
   xmlns:sodipodi="http://sodipodi.sourceforge.net/DTD/sodipodi-0.dtd"
   xmlns:inkscape="http://www.inkscape.org/namespaces/inkscape"
   viewBox="0 0 1.7723875 1"
   width="35.44775"
   height="20"
   id="svg2"
   version="1.1"
   inkscape:version="0.91 r13725"
   sodipodi:docname="Flag_of_the_United_Kingdom.svg">
  <metadata
     id="metadata21">
    <rdf:RDF>
      <cc:Work
         rdf:about="">
        <dc:format>image/svg+xml</dc:format>
        <dc:type
           rdf:resource="http://purl.org/dc/dcmitype/StillImage" />
        <dc:title></dc:title>
      </cc:Work>
    </rdf:RDF>
  </metadata>
  <defs
     id="defs19" />
  <sodipodi:namedview
     pagecolor="#ffffff"
     bordercolor="#666666"
     borderopacity="1"
     objecttolerance="10"
     gridtolerance="10"
     guidetolerance="10"
     inkscape:pageopacity="0"
     inkscape:pageshadow="2"
     inkscape:window-width="1173"
     inkscape:window-height="757"
     id="namedview17"
     showgrid="false"
     fit-margin-top="0"
     fit-margin-left="0"
     fit-margin-right="0"
     fit-margin-bottom="0"
     inkscape:zoom="10.437893"
     inkscape:cx="14.131204"
     inkscape:cy="15.000008"
     inkscape:window-x="0"
     inkscape:window-y="0"
     inkscape:window-maximized="0"
     inkscape:current-layer="svg2" />
  <clipPath
     id="t">
    <path
       d="m 30,15 30,0 0,15 z m 0,0 0,15 -30,0 z M 30,15 0,15 0,0 Z m 0,0 0,-15 30,0 z"
       id="path5"
       inkscape:connector-curvature="0" />
  </clipPath>
  <path
     d="m 0.03793529,0.07587053 0,0.84825892 1.69651691,0 0,-0.84825892 z"
     id="path7"
     inkscape:connector-curvature="0"
     style="fill:#00247d" />
  <path
     d="M 0.03793529,0.07587053 1.7344522,0.92412945 m 0,-0.84825892 -1.69651691,0.84825892"
     id="path9"
     inkscape:connector-curvature="0"
     style="stroke:#ffffff;stroke-width:0.16965169" />
  <path
     d="M 0,0 60,30 M 60,0 0,30"
     clip-path="url(#t)"
     id="path11"
     inkscape:connector-curvature="0"
     transform="matrix(0.02827528,0,0,0.02827528,0.03793529,0.07587053)"
     style="stroke:#cf142b;stroke-width:4" />
  <path
     d="m 0.88619376,0.07587053 0,0.84825892 m -0.84825847,-0.4241291 1.69651691,0"
     id="path13"
     inkscape:connector-curvature="0"
     style="stroke:#ffffff;stroke-width:0.28275281" />
  <path
     d="m 0.88619376,0.07587053 0,0.84825892 m -0.84825847,-0.4241291 1.69651691,0"
     id="path15"
     inkscape:connector-curvature="0"
     style="stroke:#cf142b;stroke-width:0.16965169" />
</svg>
