<?xml version="1.0" encoding="UTF-8" standalone="no"?>
<!-- Created with Inkscape (http://www.inkscape.org/) -->

<svg
   xmlns:dc="http://purl.org/dc/elements/1.1/"
   xmlns:cc="http://creativecommons.org/ns#"
   xmlns:rdf="http://www.w3.org/1999/02/22-rdf-syntax-ns#"
   xmlns:svg="http://www.w3.org/2000/svg"
   xmlns="http://www.w3.org/2000/svg"
   version="1.1"
   width="540"
   height="540"
   id="svg2">
  <defs
     id="defs4" />
  <metadata
     id="metadata6">
    <rdf:RDF>
      <cc:Work>
        <dc:format>image/svg+xml</dc:format>
        <dc:type
           rdf:resource="http://purl.org/dc/dcmitype/StillImage" />
        <dc:creator>
          <cc:Agent>
            <dc:title>MarianSigler, mariansigler@gmail.com</dc:title>
          </cc:Agent>
        </dc:creator>
        <cc:license
           rdf:resource="http://web.resource.org/cc/PublicDomain" />
        <dc:title></dc:title>
      </cc:Work>
      <cc:License
         rdf:about="http://web.resource.org/cc/PublicDomain">
        <cc:permits
           rdf:resource="http://web.resource.org/cc/Reproduction" />
        <cc:permits
           rdf:resource="http://web.resource.org/cc/Distribution" />
        <cc:permits
           rdf:resource="http://web.resource.org/cc/DerivativeWorks" />
        <cc:requires
           rdf:resource="http://web.resource.org/cc/ShareAlike" />
      </cc:License>
    </rdf:RDF>
  </metadata>
  <path
     d="m 511.48146,205.29524 c 11.90567,44.43259 11.90567,84.97693 0,129.40952 L 481.83317,350.01697 270,270 484.49991,192.41428 z"
     id="path8"
     style="fill:#ff0000" />
  <path
     d="m 334.70476,28.518543 c 44.43259,11.905676 79.54502,32.17785 112.07193,64.704761 L 446.18636,118.70294 270,270 315.55046,38.377025 z"
     id="path12"
     style="fill:#ffff00" />
  <path
     d="m 446.77669,93.223304 c 32.52692,32.526916 52.79909,67.639346 64.70477,112.071936 L 270,270 z"
     id="path10"
     style="fill:#ff8000" />
  <path
     d="M 93.223305,93.223305 C 125.75022,60.696393 160.86265,40.42422 205.29524,28.518543 L 229.49539,42.206322 270,270 92.739568,118.84299 z"
     id="path16"
     style="fill:#00ff00" />
  <path
     d="m 205.29524,28.518543 c 44.43259,-11.905676 84.97693,-11.905676 129.40952,0 L 270,270 z"
     id="path14"
     style="fill:#80ff00" />
  <path
     d="m 28.518543,334.70476 c -11.905676,-44.43259 -11.905676,-84.97693 0,-129.40952 L 53.457527,190.80614 270,270 51.403424,345.45357 z"
     id="path20"
     style="fill:#00ffff" />
  <path
     d="M 28.518543,205.29524 C 40.424219,160.86265 60.696393,125.75022 93.223305,93.223305 L 270,270 z"
     id="path18"
     style="fill:#00ff80" />
  <path
     d="M 205.29524,511.48146 C 160.86265,499.57578 125.75022,479.30361 93.223305,446.7767 L 95.914894,413.12524 270,270 229.70414,498.78364 z"
     id="path24"
     style="fill:#0000ff" />
  <path
     d="M 93.223305,446.7767 C 60.696393,414.24978 40.42422,379.13735 28.518543,334.70476 L 270,270 z"
     id="path22"
     style="fill:#0080ff" />
  <path
     d="m 446.7767,446.7767 c -32.52692,32.52691 -67.63935,52.79908 -112.07194,64.70476 L 311.58614,497.01711 270,270 444.52868,420.85348 z"
     id="path28"
     style="fill:#ff00ff" />
  <path
     d="m 334.70476,511.48146 c -44.43259,11.90567 -84.97693,11.90567 -129.40952,0 L 270,270 z"
     id="path26"
     style="fill:#8000ff" />
  <path
     d="M 511.48146,334.70476 C 499.57578,379.13735 479.30361,414.24978 446.7767,446.7767 L 270,270 511.48146,334.70476 z"
     id="path30"
     style="fill:#ff0080" />
  <circle
     cx="270"
     cy="270"
     r="153.79581"
     id="circle32"
     style="fill:#ffffff" />
</svg>
