<?xml version="1.0" encoding="UTF-8" standalone="no"?>
<!-- Created with Inkscape (http://www.inkscape.org/) -->

<svg
   xmlns:osb="http://www.openswatchbook.org/uri/2009/osb"
   xmlns:dc="http://purl.org/dc/elements/1.1/"
   xmlns:cc="http://creativecommons.org/ns#"
   xmlns:rdf="http://www.w3.org/1999/02/22-rdf-syntax-ns#"
   xmlns:svg="http://www.w3.org/2000/svg"
   xmlns="http://www.w3.org/2000/svg"
   xmlns:xlink="http://www.w3.org/1999/xlink"
   xmlns:sodipodi="http://sodipodi.sourceforge.net/DTD/sodipodi-0.dtd"
   xmlns:inkscape="http://www.inkscape.org/namespaces/inkscape"
   width="48"
   height="35.999908"
   id="svg2"
   version="1.1"
   inkscape:version="0.91 r13725"
   sodipodi:docname="osd_logo.svg"
   inkscape:export-filename="/Users/lucacorsato/Documents/osd/website/osdfront/assets/img/osd_simple_200.png"
   inkscape:export-xdpi="320"
   inkscape:export-ydpi="320">
  <defs
     id="defs4">
    <linearGradient
       id="linearGradient4444"
       osb:paint="solid">
      <stop
         style="stop-color:#002fa7;stop-opacity:1;"
         offset="0"
         id="stop4446" />
    </linearGradient>
    <linearGradient
       inkscape:collect="always"
       xlink:href="#linearGradient4444"
       id="linearGradient4448"
       x1="1481.6096"
       y1="393.59521"
       x2="3401.6096"
       y2="393.59521"
       gradientUnits="userSpaceOnUse" />
    <linearGradient
       inkscape:collect="always"
       xlink:href="#linearGradient4444"
       id="linearGradient4452"
       gradientUnits="userSpaceOnUse"
       x1="1481.6096"
       y1="393.59521"
       x2="3401.6096"
       y2="393.59521"
       gradientTransform="translate(-1761.6116,2283.4524)" />
  </defs>
  <sodipodi:namedview
     id="base"
     pagecolor="#ffffff"
     bordercolor="#666666"
     borderopacity="1.0"
     inkscape:pageopacity="0.0"
     inkscape:pageshadow="2"
     inkscape:zoom="1.28"
     inkscape:cx="-233.33755"
     inkscape:cy="28.441992"
     inkscape:document-units="px"
     inkscape:current-layer="layer11"
     showgrid="false"
     inkscape:window-width="1440"
     inkscape:window-height="851"
     inkscape:window-x="0"
     inkscape:window-y="1"
     inkscape:window-maximized="1"
     fit-margin-top="0"
     fit-margin-left="0"
     fit-margin-right="0"
     fit-margin-bottom="0" />
  <metadata
     id="metadata7">
    <rdf:RDF>
      <cc:Work
         rdf:about="">
        <dc:format>image/svg+xml</dc:format>
        <dc:type
           rdf:resource="http://purl.org/dc/dcmitype/StillImage" />
        <dc:title></dc:title>
      </cc:Work>
    </rdf:RDF>
  </metadata>
  <g
     inkscape:groupmode="layer"
     id="layer1"
     inkscape:label="sfondo"
     transform="translate(-14.999992,34.750068)"
     style="display:inline" />
  <g
     inkscape:groupmode="layer"
     id="layer11"
     inkscape:label="logo"
     style="display:inline"
     transform="translate(-14.999992,-980.11213)">
    <path
       inkscape:connector-curvature="0"
       id="path4292"
       style="font-style:normal;font-variant:normal;font-weight:bold;font-stretch:normal;font-size:28px;line-height:125%;font-family:'Open Sans';-inkscape-font-specification:'Open Sans Bold';text-align:start;letter-spacing:0px;word-spacing:0px;writing-mode:lr-tb;text-anchor:start;display:inline;fill:#ea5480;fill-opacity:1;stroke:none"
       d="m 18.264439,998.09608 c -8e-6,1.17533 0.188907,2.06382 0.566774,2.66562 0.384856,0.6016 1.007654,0.9026 1.86837,0.9026 0.853713,0 1.466026,-0.2974 1.836914,-0.8919 0.377873,-0.6019 0.566817,-1.49394 0.56682,-2.67632 -3e-6,-1.17525 -0.188947,-2.05661 -0.56682,-2.64422 -0.377902,-0.58759 -0.997189,-0.88148 -1.85788,-0.88148 -0.853733,0 -1.469518,0.29389 -1.847404,0.88148 -0.377867,0.58052 -0.566782,1.46189 -0.566774,2.64422 m 8.113763,0 c -1.5e-5,1.93272 -0.503827,3.44432 -1.511485,4.53452 -1.007706,1.0904 -2.410666,1.6354 -4.209099,1.6354 -1.126593,0 -2.120299,-0.2477 -2.980998,-0.7432 -0.860712,-0.5028 -1.521959,-1.2214 -1.983885,-2.1559 -0.461824,-0.9345 -0.692743,-2.02475 -0.692743,-3.27082 0,-1.93973 0.500296,-3.44774 1.500985,-4.52392 1.000691,-1.0761 2.407241,-1.61418 4.219587,-1.61418 1.126665,0 2.120272,0.24777 2.981078,0.74338 0.860691,0.49561 1.521952,1.20708 1.983814,2.13459 0.461811,0.92743 0.692731,2.01412 0.692746,3.26013"
       inkscape:export-filename="/Users/lucacorsato/Documents/o{s}d/o{s}d_semplice.png"
       inkscape:export-xdpi="300"
       inkscape:export-ydpi="300" />
    <path
       d="m 56.460753,1004.2661 c -1.378557,0 -2.463162,-0.5417 -3.253909,-1.6248 -0.783747,-1.0832 -1.175573,-2.584 -1.175573,-4.50261 0,-1.94688 0.398803,-3.46192 1.196563,-4.54503 0.804717,-1.09031 1.910316,-1.63547 3.316867,-1.63547 1.476473,0 2.603132,0.58055 3.379814,1.74157 l 0.104998,0 c -0.160953,-0.88491 -0.241404,-1.67434 -0.241389,-2.36808 l 0,-3.80181 3.211868,0 0,16.52383 -2.456175,0 -0.619302,-1.5397 -0.136391,0 c -0.727798,1.168 -1.836886,1.7521 -3.327371,1.7521 m 1.123093,-2.5805 c 0.818707,0 1.417011,-0.2408 1.794897,-0.722 0.384816,-0.4815 0.59474,-1.29928 0.629794,-2.45323 l 0,-0.35045 c -9e-6,-1.27427 -0.195933,-2.1875 -0.587833,-2.73983 -0.384868,-0.55212 -1.014644,-0.82831 -1.889311,-0.82831 -0.713816,0 -1.270084,0.30798 -1.668941,0.92396 -0.391873,0.60883 -0.587808,1.49731 -0.587805,2.66538 -8e-6,1.1682 0.199443,2.04608 0.59829,2.63368 0.398865,0.5806 0.969131,0.8708 1.7109,0.8708"
       style="font-style:normal;font-variant:normal;font-weight:bold;font-stretch:normal;font-size:28px;line-height:125%;font-family:'Open Sans';-inkscape-font-specification:'Open Sans Bold';text-align:start;letter-spacing:0px;word-spacing:0px;writing-mode:lr-tb;text-anchor:start;display:inline;fill:#002fa7;fill-opacity:1;stroke:none"
       id="path4296"
       inkscape:connector-curvature="0"
       inkscape:export-filename="/Users/lucacorsato/Documents/o{s}d/o{s}d_semplice.png"
       inkscape:export-xdpi="300"
       inkscape:export-ydpi="300" />
    <g
       id="g3785"
       transform="matrix(0.28489685,0,0,0.28489685,10.55726,726.7402)">
      <path
         inkscape:export-ydpi="300"
         inkscape:export-xdpi="300"
         inkscape:export-filename="/Users/lucacorsato/Documents/o{s}d/o{s}d_semplice.png"
         d="m 90.606059,1015.7074 c -6.189514,-3e-4 -10.954632,-1.9137 -14.294854,-5.7406 -3.29147,-3.827 -4.937073,-9.2191 -4.937045,-16.17702 l 0,-21.99203 c -2.8e-5,-5.81472 -1.301817,-10.1638 -3.905173,-13.04637 -2.554619,-2.93215 -6.533523,-4.49762 -11.937309,-4.69643 l 0,-3.35461 c 10.561775,-0.19923 15.842454,-6.06337 15.842482,-17.59367 l 0,-21.91769 c -2.8e-5,-7.00752 1.596477,-12.39964 4.789472,-16.17703 3.193204,-3.77705 8.007115,-5.66575 14.442427,-5.66575 l 9.947711,0 0,3.50401 -4.568738,0 c -4.470333,0 -7.663245,1.36676 -9.579056,4.1 -1.866616,2.68396 -2.799944,6.65973 -2.799917,11.92791 l 0,24.60111 c -2.7e-5,4.72169 -1.277337,8.79704 -3.831803,12.22634 -2.554327,3.37946 -5.993092,5.54122 -10.316018,6.48584 l 0,0.22351 c 4.372052,1.04347 7.81079,3.25507 10.316018,6.63481 2.554466,3.32962 3.831776,7.40504 3.831803,12.22614 l 0,24.89933 c -2.7e-5,5.2681 0.933301,9.244 2.799917,11.9281 1.915811,2.733 5.108723,4.0998 9.579056,4.0998 l 4.568738,0 0,3.504 -9.947711,0"
         style="font-style:normal;font-variant:normal;font-weight:normal;font-stretch:normal;font-size:56px;line-height:125%;font-family:'Liberation Serif';-inkscape-font-specification:'Liberation Serif';text-align:start;letter-spacing:0px;word-spacing:0px;writing-mode:lr-tb;text-anchor:start;display:inline;fill:#ea5480;fill-opacity:1;stroke:none"
         id="path4298"
         inkscape:connector-curvature="0" />
      <path
         inkscape:export-ydpi="300"
         inkscape:export-xdpi="300"
         inkscape:export-filename="/Users/lucacorsato/Documents/o{s}d/o{s}d_semplice.png"
         d="m 100.55377,1015.7074 0,-3.5043 4.5684,0 c 4.47024,0 7.63862,-1.3668 9.50547,-4.0998 1.91567,-2.6841 2.87378,-6.66 2.87381,-11.9281 l 0,-24.89933 c -3e-5,-4.82096 1.25239,-8.89624 3.75791,-12.22614 2.50518,-3.37974 5.96842,-5.59134 10.38961,-6.63481 l 0,-0.22351 c -4.32291,-0.94434 -7.76172,-3.13123 -10.31595,-6.56025 -2.55461,-3.42945 -3.8316,-7.47974 -3.83157,-12.15188 l 0,-24.6011 c -3e-5,-5.26818 -0.95814,-9.24395 -2.87381,-11.92792 -1.86685,-2.73323 -5.03523,-4.1 -9.50547,-4.1 l -4.5684,0 0,-3.50401 10.02108,0 c 6.38609,3e-4 11.17585,1.889 14.36881,5.66604 3.19285,3.7771 4.7893,9.16949 4.78936,16.17674 l 0,21.9177 c -6e-5,11.53024 5.28104,17.39467 15.84251,17.59361 l 0,3.35461 c -5.30534,0.19909 -9.28449,1.73929 -11.93692,4.62201 -2.60375,2.88272 -3.90565,7.25622 -3.90559,13.12079 l 0,21.99203 c -6e-5,6.90832 -1.67015,12.27582 -5.01038,16.10252 -3.29142,3.8766 -8.00717,5.8151 -14.14779,5.8151 l -10.02108,0"
         style="font-style:normal;font-variant:normal;font-weight:normal;font-stretch:normal;font-size:56px;line-height:125%;font-family:'Liberation Serif';-inkscape-font-specification:'Liberation Serif';text-align:start;letter-spacing:0px;word-spacing:0px;writing-mode:lr-tb;text-anchor:start;display:inline;fill:#002fa7;fill-opacity:1;stroke:none"
         id="path4300"
         inkscape:connector-curvature="0" />
    </g>
    <g
       style="font-style:normal;font-variant:normal;font-weight:bold;font-stretch:normal;font-size:71.3184433px;line-height:125%;font-family:'Open Sans';-inkscape-font-specification:'Open Sans Bold';text-align:start;letter-spacing:0px;word-spacing:0px;writing-mode:lr-tb;text-anchor:start;fill:#1a1a1a;fill-opacity:1;stroke:none"
       id="text3777"
       transform="matrix(0.28235293,0,0,0.28235293,10.7647,729.20982)">
      <path
         d="m 115.49002,960.2845 q 0,5.98963 -4.17881,9.12374 -4.14399,3.13412 -12.431975,3.13412 -4.248462,0 -7.243279,-0.592 -2.994818,-0.55718 -5.606577,-1.67153 l 0,-8.77551 q 2.959994,1.39294 6.651281,2.33317 3.72611,0.94023 6.54681,0.94023 5.78069,0 5.78069,-3.34305 0,-1.25364 -0.76611,-2.01976 -0.76612,-0.80094 -2.64659,-1.77599 -1.880462,-1.00989 -5.014573,-2.33318 -4.492226,-1.88046 -6.616457,-3.48234 -2.089408,-1.60188 -3.064465,-3.65647 -0.940233,-2.0894 -0.940233,-5.11904 0,-5.1887 4.004698,-8.0094 4.039521,-2.85552 11.42209,-2.85552 7.03434,0 13.68562,3.06446 l -3.20375,7.66116 q -2.92518,-1.25364 -5.46729,-2.05458 -2.54211,-0.80094 -5.18869,-0.80094 -4.70117,0 -4.70117,2.54211 0,1.42776 1.497409,2.47247 1.532232,1.0447 6.651281,3.09928 4.56187,1.84565 6.6861,3.44753 2.12423,1.60188 3.13411,3.69128 1.00988,2.08941 1.00988,4.97976 z"
         id="path4155"
         inkscape:connector-curvature="0" />
    </g>
  </g>
</svg>
