<?xml version="1.0" encoding="UTF-8" standalone="no"?>
<svg
   xmlns:dc="http://purl.org/dc/elements/1.1/"
   xmlns:cc="http://creativecommons.org/ns#"
   xmlns:rdf="http://www.w3.org/1999/02/22-rdf-syntax-ns#"
   xmlns:svg="http://www.w3.org/2000/svg"
   xmlns="http://www.w3.org/2000/svg"
   xmlns:sodipodi="http://sodipodi.sourceforge.net/DTD/sodipodi-0.dtd"
   xmlns:inkscape="http://www.inkscape.org/namespaces/inkscape"
   width="128.00002"
   height="100.57943"
   viewBox="0 0 128.00002 100.57943"
   id="svg32"
   version="1.1"
   inkscape:version="0.91 r13725"
   sodipodi:docname="comments-o.svg">
  <metadata
     id="metadata40">
    <rdf:RDF>
      <cc:Work
         rdf:about="">
        <dc:format>image/svg+xml</dc:format>
        <dc:type
           rdf:resource="http://purl.org/dc/dcmitype/StillImage" />
        <dc:title></dc:title>
      </cc:Work>
    </rdf:RDF>
  </metadata>
  <defs
     id="defs38" />
  <sodipodi:namedview
     pagecolor="#ffffff"
     bordercolor="#666666"
     borderopacity="1"
     objecttolerance="10"
     gridtolerance="10"
     guidetolerance="10"
     inkscape:pageopacity="0"
     inkscape:pageshadow="2"
     inkscape:window-width="877"
     inkscape:window-height="702"
     id="namedview36"
     showgrid="false"
     fit-margin-top="0"
     fit-margin-left="0"
     fit-margin-right="0"
     fit-margin-bottom="0"
     inkscape:zoom="0.13169643"
     inkscape:cx="896"
     inkscape:cy="768.11113"
     inkscape:window-x="251"
     inkscape:window-y="54"
     inkscape:window-maximized="0"
     inkscape:current-layer="svg32" />
  <path
     d="m 50.285714,9.1429 q -10.928571,0 -20.428571,3.7143 -9.5,3.7143 -15.107143,10.0714 -5.6071429,6.3572 -5.6071429,13.6429 0,5.8571 3.7857139,11.2857 3.785715,5.4286 10.642858,9.4286 l 6.928571,4 -2.5,6 Q 30.428571,65.8572 32.428571,64.5 L 35.571429,62.2858 39.357143,63 q 5.571428,1 10.928571,1 10.928572,0 20.428572,-3.7142 9.5,-3.7143 15.107143,-10.0715 5.607142,-6.3571 5.607142,-13.6428 0,-7.2857 -5.607142,-13.6429 -5.607143,-6.3571 -15.107143,-10.0714 -9.5,-3.7143 -20.428572,-3.7143 z m 0,-9.1429 q 13.642857,0 25.25,4.8929 11.607143,4.8929 18.321429,13.3214 6.714287,8.4286 6.714287,18.3572 0,9.9285 -6.714287,18.3571 -6.714286,8.4286 -18.321429,13.3214 -11.607143,4.8929 -25.25,4.8929 -6.142857,0 -12.571428,-1.1429 -8.857143,6.2858 -19.857143,9.1429 -2.571429,0.6429 -6.142857,1.1429 l -0.214286,0 q -0.785714,0 -1.464286,-0.5715 -0.6785711,-0.5714 -0.8214283,-1.5 Q 9.1428567,80 9.1428567,79.75 q 0,-0.25 0.035714,-0.4642 0.035714,-0.2143 0.1428572,-0.4286 L 9.5,78.5 9.75,78.1072 10.035714,77.75 10.357143,77.3929 10.642857,77.0715 Q 11,76.6429 12.285714,75.2858 q 1.285715,-1.3572 1.857143,-2.1072 0.571429,-0.75 1.607143,-2.0714 1.035714,-1.3214 1.785714,-2.75 Q 18.285714,66.9286 19,65.2143 10.142857,60.0715 5.0714286,52.5715 0,45.0715 0,36.5715 0,26.6429 6.7142857,18.2143 13.428571,9.7858 25.035714,4.8929 36.642857,0 50.285714,0 Z M 109,83.5 q 0.71429,1.7143 1.46429,3.1429 0.75,1.4286 1.78571,2.75 1.03571,1.3214 1.60714,2.0714 0.57143,0.75 1.85715,2.1072 1.28571,1.3571 1.64285,1.7857 0.0714,0.071 0.28572,0.3214 0.21428,0.25 0.32143,0.3572 0.10714,0.1071 0.28571,0.3571 0.17857,0.25 0.25,0.3929 l 0.17857,0.3571 0.14286,0.4286 0.0357,0.4643 -0.0714,0.4642 q -0.21428,1 -0.92857,1.5715 -0.71428,0.5714 -1.57143,0.5 -3.57142,-0.5 -6.14285,-1.1429 -11.000003,-2.8571 -19.857146,-9.1428 -6.428571,1.1428 -12.571428,1.1428 -19.357143,0 -33.714286,-9.4286 4.142857,0.2858 6.285714,0.2858 11.5,0 22.071429,-3.2143 10.571428,-3.2143 18.857143,-9.2143 8.928574,-6.5714 13.714284,-15.1429 4.78572,-8.5714 4.78572,-18.1428 0,-5.5 -1.64286,-10.8572 9.21428,5.0715 14.57143,12.7143 5.35714,7.6429 5.35714,16.4286 0,8.5714 -5.07143,16.0357 -5.07143,7.4643 -13.92857,12.6071 z"
     id="path34"
     inkscape:connector-curvature="0" />
</svg>
