<?xml version="1.0" encoding="UTF-8" standalone="no"?>
<svg
   xmlns:dc="http://purl.org/dc/elements/1.1/"
   xmlns:cc="http://creativecommons.org/ns#"
   xmlns:rdf="http://www.w3.org/1999/02/22-rdf-syntax-ns#"
   xmlns:svg="http://www.w3.org/2000/svg"
   xmlns="http://www.w3.org/2000/svg"
   xmlns:sodipodi="http://sodipodi.sourceforge.net/DTD/sodipodi-0.dtd"
   xmlns:inkscape="http://www.inkscape.org/namespaces/inkscape"
   width="32"
   height="25.144861"
   viewBox="0 0 32.000001 25.144861"
   id="svg32"
   version="1.1"
   inkscape:version="0.91 r13725"
   sodipodi:docname="comments-o_32.svg">
  <metadata
     id="metadata40">
    <rdf:RDF>
      <cc:Work
         rdf:about="">
        <dc:format>image/svg+xml</dc:format>
        <dc:type
           rdf:resource="http://purl.org/dc/dcmitype/StillImage" />
        <dc:title></dc:title>
      </cc:Work>
    </rdf:RDF>
  </metadata>
  <defs
     id="defs38" />
  <sodipodi:namedview
     pagecolor="#ffffff"
     bordercolor="#666666"
     borderopacity="1"
     objecttolerance="10"
     gridtolerance="10"
     guidetolerance="10"
     inkscape:pageopacity="0"
     inkscape:pageshadow="2"
     inkscape:window-width="877"
     inkscape:window-height="702"
     id="namedview36"
     showgrid="false"
     fit-margin-top="0"
     fit-margin-left="0"
     fit-margin-right="0"
     fit-margin-bottom="0"
     inkscape:zoom="19.884779"
     inkscape:cx="16"
     inkscape:cy="12.572431"
     inkscape:window-x="136"
     inkscape:window-y="143"
     inkscape:window-maximized="0"
     inkscape:current-layer="svg32" />
  <path
     d="m 12.571427,2.285725 q -2.7321428,0 -5.1071424,0.928575 -2.3749996,0.928574 -3.7767852,2.517849 -1.4017855,1.5893 -1.4017855,3.410725 0,1.464274 0.9464283,2.821424 0.9464286,1.35715 2.6607141,2.35715 l 1.7321425,1 -0.6249999,1.499999 q 0.6071427,-0.357149 1.1071426,-0.696449 l 0.7857144,-0.55355 0.9464283,0.17855 q 1.3928568,0.25 2.7321428,0.25 2.732142,0 5.107142,-0.92855 2.374999,-0.928575 3.776785,-2.517875 1.401785,-1.589275 1.401785,-3.410699 0,-1.821425 -1.401785,-3.410725 Q 20.053568,4.142874 17.678569,3.2143 15.303569,2.285725 12.571427,2.285725 Z m 0,-2.285725 q 3.410713,0 6.312499,1.223225 2.901785,1.223225 4.580356,3.330349 1.678572,2.10715 1.678572,4.5893 0,2.482124 -1.678572,4.589274 -1.678571,2.10715 -4.580356,3.330349 -2.901786,1.223225 -6.312499,1.223225 -1.535714,0 -3.142857,-0.285725 -2.2142854,1.57145 -4.9642849,2.285725 -0.6428572,0.160725 -1.5357141,0.285725 l -0.053571,0 q -0.1964285,0 -0.3660715,-0.142875 -0.1696427,-0.14285 -0.205357,-0.375 -0.017857,-0.05358 -0.017857,-0.116075 0,-0.0625 0.00893,-0.11605 0.00893,-0.05357 0.035714,-0.10715 l 0.044643,-0.0893 0.0625,-0.0982 0.071428,-0.0893 0.080357,-0.08928 0.071429,-0.08035 q 0.089286,-0.10715 0.4107142,-0.446425 0.3214287,-0.3393 0.4642857,-0.5268 0.1428572,-0.1875 0.4017857,-0.51785 0.2589284,-0.33035 0.4464284,-0.6875 0.1875,-0.35715 0.3660715,-0.785724 Q 2.5357139,15.017873 1.267857,13.142873 0,11.267873 0,9.142874 0,6.660724 1.6785712,4.553574 3.3571422,2.44645 6.2589275,1.223225 9.1607128,0 12.571427,0 Z m 14.678569,20.874997 q 0.178572,0.428575 0.366072,0.785725 0.1875,0.35715 0.446428,0.6875 0.258927,0.33035 0.401785,0.51785 0.142857,0.187499 0.464287,0.526799 0.321427,0.339275 0.410712,0.446425 0.01785,0.01775 0.07143,0.08035 0.05357,0.0625 0.08036,0.0893 0.02679,0.02678 0.07143,0.08928 0.04464,0.0625 0.0625,0.09822 l 0.04464,0.08928 0.03571,0.10715 0.0089,0.116075 -0.01785,0.116042 q -0.05357,0.25 -0.232143,0.39288 -0.17857,0.14285 -0.392857,0.125 -0.892855,-0.125 -1.535712,-0.28573 -2.750001,-0.714267 -4.964286,-2.285691 -1.607143,0.2857 -3.142857,0.2857 -4.839285,0 -8.42857,-2.35715 1.035714,0.07145 1.571429,0.07145 2.874999,0 5.517856,-0.803575 2.642857,-0.803575 4.714285,-2.303575 2.232143,-1.642849 3.42857,-3.785724 1.19643,-2.14285 1.19643,-4.535699 0,-1.375 -0.410715,-2.7143 2.30357,1.267875 3.642857,3.178575 Q 32,11.517873 32,13.714298 q 0,2.14285 -1.267857,4.008924 -1.267858,1.866075 -3.482142,3.151775 z"
     id="path34"
     inkscape:connector-curvature="0" />
</svg>
