<?xml version="1.0" encoding="UTF-8" standalone="no"?>
<svg
   xmlns:dc="http://purl.org/dc/elements/1.1/"
   xmlns:cc="http://creativecommons.org/ns#"
   xmlns:rdf="http://www.w3.org/1999/02/22-rdf-syntax-ns#"
   xmlns:svg="http://www.w3.org/2000/svg"
   xmlns="http://www.w3.org/2000/svg"
   xmlns:sodipodi="http://sodipodi.sourceforge.net/DTD/sodipodi-0.dtd"
   xmlns:inkscape="http://www.inkscape.org/namespaces/inkscape"
   width="32"
   height="32"
   viewBox="0 0 32 32"
   id="svg42"
   version="1.1"
   inkscape:version="0.91 r13725"
   sodipodi:docname="compass_32.svg">
  <metadata
     id="metadata50">
    <rdf:RDF>
      <cc:Work
         rdf:about="">
        <dc:format>image/svg+xml</dc:format>
        <dc:type
           rdf:resource="http://purl.org/dc/dcmitype/StillImage" />
        <dc:title></dc:title>
      </cc:Work>
    </rdf:RDF>
  </metadata>
  <defs
     id="defs48" />
  <sodipodi:namedview
     pagecolor="#ffffff"
     bordercolor="#666666"
     borderopacity="1"
     objecttolerance="10"
     gridtolerance="10"
     guidetolerance="10"
     inkscape:pageopacity="0"
     inkscape:pageshadow="2"
     inkscape:window-width="1197"
     inkscape:window-height="651"
     id="namedview46"
     showgrid="false"
     fit-margin-top="0"
     fit-margin-left="0"
     fit-margin-right="0"
     fit-margin-bottom="0"
     inkscape:zoom="0.13169643"
     inkscape:cx="768"
     inkscape:cy="768"
     inkscape:window-x="131"
     inkscape:window-y="201"
     inkscape:window-maximized="0"
     inkscape:current-layer="svg42" />
  <path
     d="m 13.333332,20 5.333335,-2.66667 -5.333335,-2.66666 0,5.33333 z m 8,-12.3125 0,11.29167 -10.666665,5.33333 0,-11.29167 z m 6,8.3125 q 0,-3.08333 -1.520832,-5.6875 Q 24.291667,7.70833 21.6875,6.1875 19.083332,4.66667 16,4.66667 q -3.083333,0 -5.6875,1.52083 -2.6041675,1.52083 -4.125,4.125 Q 4.6666675,12.91667 4.6666675,16 q 0,3.08333 1.5208325,5.6875 1.5208325,2.60417 4.125,4.125 2.604167,1.52083 5.6875,1.52083 3.083332,0 5.6875,-1.52083 2.604167,-1.52083 4.125,-4.125 Q 27.333332,19.08333 27.333332,16 Z M 32,16 q 0,4.35417 -2.145833,8.03125 -2.145835,3.67708 -5.822917,5.82292 Q 20.354167,32 16,32 11.645832,32 7.96875,29.85417 4.2916675,27.70833 2.1458325,24.03125 0,20.35417 0,16 0,11.64583 2.1458325,7.96875 4.2916675,4.29167 7.96875,2.145825 11.645832,0 16,0 20.354167,0 24.03125,2.145825 27.708332,4.29167 29.854167,7.96875 32,11.64583 32,16 Z"
     id="path44"
     inkscape:connector-curvature="0" />
</svg>
