<?xml version="1.0" encoding="UTF-8" standalone="no"?>
<svg
   xmlns:dc="http://purl.org/dc/elements/1.1/"
   xmlns:cc="http://creativecommons.org/ns#"
   xmlns:rdf="http://www.w3.org/1999/02/22-rdf-syntax-ns#"
   xmlns:svg="http://www.w3.org/2000/svg"
   xmlns="http://www.w3.org/2000/svg"
   xmlns:sodipodi="http://sodipodi.sourceforge.net/DTD/sodipodi-0.dtd"
   xmlns:inkscape="http://www.inkscape.org/namespaces/inkscape"
   width="32"
   height="32"
   viewBox="0 0 32 32"
   id="svg52"
   version="1.1"
   inkscape:version="0.91 r13725"
   sodipodi:docname="cube_32.svg">
  <metadata
     id="metadata60">
    <rdf:RDF>
      <cc:Work
         rdf:about="">
        <dc:format>image/svg+xml</dc:format>
        <dc:type
           rdf:resource="http://purl.org/dc/dcmitype/StillImage" />
        <dc:title></dc:title>
      </cc:Work>
    </rdf:RDF>
  </metadata>
  <defs
     id="defs58" />
  <sodipodi:namedview
     pagecolor="#ffffff"
     bordercolor="#666666"
     borderopacity="1"
     objecttolerance="10"
     gridtolerance="10"
     guidetolerance="10"
     inkscape:pageopacity="0"
     inkscape:pageshadow="2"
     inkscape:window-width="1127"
     inkscape:window-height="785"
     id="namedview56"
     showgrid="false"
     fit-margin-top="0"
     fit-margin-left="0"
     fit-margin-right="0"
     fit-margin-bottom="0"
     inkscape:zoom="0.13169643"
     inkscape:cx="896"
     inkscape:cy="896"
     inkscape:window-x="188"
     inkscape:window-y="72"
     inkscape:window-maximized="0"
     inkscape:current-layer="svg52" />
  <path
     d="m 17.230769,28.86538 12.307694,-6.71153 0,-12.23078 -12.307694,4.48078 0,14.46153 z M 16,12.23077 29.423078,7.34615 16,2.46155 2.576923,7.34615 Z m 16,-4.84614 0,14.76922 q 0,0.67308 -0.346155,1.25 -0.346152,0.57692 -0.942307,0.90385 L 17.173077,31.6923 Q 16.634615,32 16,32 15.365384,32 14.826923,31.6923 L 1.2884615,24.3077 Q 0.6923077,23.98077 0.34615385,23.40385 0,22.82693 0,22.15385 L 0,7.38463 Q 0,6.61538 0.4423077,5.98077 0.88461537,5.34615 1.6153846,5.07693 L 15.153846,0.15385 Q 15.576923,0 16,0 q 0.423077,0 0.846154,0.15385 l 13.538461,4.92308 q 0.73077,0.26922 1.173077,0.90384 Q 32,6.61538 32,7.38463 Z"
     id="path54"
     inkscape:connector-curvature="0" />
</svg>
