<?xml version="1.0" encoding="UTF-8" standalone="no"?>
<svg
   xmlns:dc="http://purl.org/dc/elements/1.1/"
   xmlns:cc="http://creativecommons.org/ns#"
   xmlns:rdf="http://www.w3.org/1999/02/22-rdf-syntax-ns#"
   xmlns:svg="http://www.w3.org/2000/svg"
   xmlns="http://www.w3.org/2000/svg"
   xmlns:sodipodi="http://sodipodi.sourceforge.net/DTD/sodipodi-0.dtd"
   xmlns:inkscape="http://www.inkscape.org/namespaces/inkscape"
   width="32"
   height="20.571424"
   viewBox="0 0 32 20.571424"
   id="svg32"
   version="1.1"
   inkscape:version="0.91 r13725"
   sodipodi:docname="eye_32.svg">
  <metadata
     id="metadata40">
    <rdf:RDF>
      <cc:Work
         rdf:about="">
        <dc:format>image/svg+xml</dc:format>
        <dc:type
           rdf:resource="http://purl.org/dc/dcmitype/StillImage" />
        <dc:title></dc:title>
      </cc:Work>
    </rdf:RDF>
  </metadata>
  <defs
     id="defs38" />
  <sodipodi:namedview
     pagecolor="#ffffff"
     bordercolor="#666666"
     borderopacity="1"
     objecttolerance="10"
     gridtolerance="10"
     guidetolerance="10"
     inkscape:pageopacity="0"
     inkscape:pageshadow="2"
     inkscape:window-width="1071"
     inkscape:window-height="671"
     id="namedview36"
     showgrid="false"
     fit-margin-top="0"
     fit-margin-left="0"
     fit-margin-right="0"
     fit-margin-bottom="0"
     inkscape:zoom="0.13169643"
     inkscape:cx="896"
     inkscape:cy="640"
     inkscape:window-x="178"
     inkscape:window-y="117"
     inkscape:window-maximized="0"
     inkscape:current-layer="svg32" />
  <path
     d="M 29.714285,10.2857 Q 27,6.071425 22.910714,3.98215 24,5.839275 24,8 24,11.303575 21.651786,13.651775 19.303571,16 16,16 12.696429,16 10.348214,13.651775 8,11.303575 8,8 8,5.839275 9.0892858,3.98215 5,6.071425 2.2857143,10.2857 4.6607142,13.946425 8.2410715,16.116075 11.821429,18.2857 16,18.2857 q 4.178571,0 7.758928,-2.169625 3.580357,-2.16965 5.955357,-5.830375 z M 16.857143,3.428575 q 0,-0.35715 -0.25,-0.60715 -0.25,-0.25 -0.607143,-0.25 -2.232143,0 -3.830357,1.598225 Q 10.571429,5.76785 10.571429,8 q 0,0.35715 0.25,0.60715 0.25,0.25 0.607143,0.25 0.357142,0 0.607142,-0.25 0.25,-0.25 0.25,-0.60715 0,-1.535725 1.089286,-2.625 1.089286,-1.0893 2.625,-1.0893 0.357143,0 0.607143,-0.25 0.25,-0.25 0.25,-0.607125 z M 32,10.2857 q 0,0.60715 -0.357142,1.23215 -2.5,4.10715 -6.723215,6.58035 Q 20.696428,20.571425 16,20.571425 q -4.696428,0 -8.9196428,-2.48215 Q 2.8571428,15.60715 0.35714285,11.51785 0,10.89285 0,10.2857 0,9.678575 0.35714285,9.053575 2.8571428,4.964275 7.0803572,2.48215 11.303572,0 16,0 20.696428,0 24.919643,2.48215 29.142858,4.964275 31.642858,9.053575 32,9.678575 32,10.2857 Z"
     id="path34"
     inkscape:connector-curvature="0" />
</svg>
