<?xml version="1.0" encoding="UTF-8" standalone="no"?>
<svg
   xmlns:dc="http://purl.org/dc/elements/1.1/"
   xmlns:cc="http://creativecommons.org/ns#"
   xmlns:rdf="http://www.w3.org/1999/02/22-rdf-syntax-ns#"
   xmlns:svg="http://www.w3.org/2000/svg"
   xmlns="http://www.w3.org/2000/svg"
   xmlns:sodipodi="http://sodipodi.sourceforge.net/DTD/sodipodi-0.dtd"
   xmlns:inkscape="http://www.inkscape.org/namespaces/inkscape"
   width="32"
   height="32.039001"
   viewBox="0 0 32 32.039003"
   id="svg132"
   version="1.1"
   inkscape:version="0.91 r13725"
   sodipodi:docname="wrench_32.svg">
  <metadata
     id="metadata140">
    <rdf:RDF>
      <cc:Work
         rdf:about="">
        <dc:format>image/svg+xml</dc:format>
        <dc:type
           rdf:resource="http://purl.org/dc/dcmitype/StillImage" />
        <dc:title></dc:title>
      </cc:Work>
    </rdf:RDF>
  </metadata>
  <defs
     id="defs138" />
  <sodipodi:namedview
     pagecolor="#ffffff"
     bordercolor="#666666"
     borderopacity="1"
     objecttolerance="10"
     gridtolerance="10"
     guidetolerance="10"
     inkscape:pageopacity="0"
     inkscape:pageshadow="2"
     inkscape:window-width="1027"
     inkscape:window-height="685"
     id="namedview136"
     showgrid="false"
     fit-margin-top="0"
     fit-margin-left="0"
     fit-margin-right="0"
     fit-margin-bottom="0"
     inkscape:zoom="0.13169643"
     inkscape:cx="51.677977"
     inkscape:cy="267.54237"
     inkscape:window-x="247"
     inkscape:window-y="42"
     inkscape:window-maximized="0"
     inkscape:current-layer="svg132" />
  <path
     d="m 7.07861,26.2084 q 0,-0.507 -0.370505,-0.8775 Q 6.3376,24.9604 5.83059,24.9604 q -0.5070075,0 -0.8775125,0.3705 -0.370505,0.3705 -0.370505,0.8775 0,0.50703 0.370505,0.87753 0.370505,0.3705 0.8775125,0.3705 0.50701,0 0.877515,-0.3705 Q 7.07861,26.71543 7.07861,26.2084 Z M 19.636807,18.01828 6.3376,31.3175 Q 5.6160875,32.039 4.5825725,32.039 3.5685557,32.039 2.808044,31.3175 L 0.7410115,29.21145 Q 0,28.50945 0,27.45643 0,26.4229 0.7410115,25.6819 L 14.02072,12.4022 q 0.76051,1.91103 2.232785,3.3833 1.472272,1.47228 3.383302,2.23278 z M 32,9.53565 q 0,0.7605 -0.448508,2.06703 -0.916515,2.61305 -3.2078,4.24132 -2.291285,1.62828 -5.040827,1.62828 -3.607558,0 -6.171848,-2.5643 -2.56429,-2.56428 -2.56429,-6.17185 0,-3.60755 2.56429,-6.17183 Q 19.695307,0 23.302865,0 q 1.131017,0 2.369285,0.32175 1.23827,0.32175 2.096285,0.906775 0.312005,0.2145 0.312005,0.546 0,0.3315 -0.312005,0.546 l -5.71359,3.295555 0,4.36807 3.763557,2.08655 q 0.0975,-0.0585 1.540525,-0.94577 1.443023,-0.88728 2.642293,-1.57953 1.199267,-0.69225 1.37477,-0.69225 0.292505,0 0.458257,0.195 Q 32,9.24315 32,9.53565 Z"
     id="path134"
     inkscape:connector-curvature="0" />
</svg>
