<?xml version="1.0" encoding="UTF-8" standalone="no"?>
<svg
   xmlns:dc="http://purl.org/dc/elements/1.1/"
   xmlns:cc="http://creativecommons.org/ns#"
   xmlns:rdf="http://www.w3.org/1999/02/22-rdf-syntax-ns#"
   xmlns:svg="http://www.w3.org/2000/svg"
   xmlns="http://www.w3.org/2000/svg"
   xmlns:sodipodi="http://sodipodi.sourceforge.net/DTD/sodipodi-0.dtd"
   xmlns:inkscape="http://www.inkscape.org/namespaces/inkscape"
   width="128"
   height="128.15601"
   viewBox="0 0 128 128.15601"
   id="svg132"
   version="1.1"
   inkscape:version="0.91 r13725"
   sodipodi:docname="wrench.svg">
  <metadata
     id="metadata140">
    <rdf:RDF>
      <cc:Work
         rdf:about="">
        <dc:format>image/svg+xml</dc:format>
        <dc:type
           rdf:resource="http://purl.org/dc/dcmitype/StillImage" />
        <dc:title></dc:title>
      </cc:Work>
    </rdf:RDF>
  </metadata>
  <defs
     id="defs138" />
  <sodipodi:namedview
     pagecolor="#ffffff"
     bordercolor="#666666"
     borderopacity="1"
     objecttolerance="10"
     gridtolerance="10"
     guidetolerance="10"
     inkscape:pageopacity="0"
     inkscape:pageshadow="2"
     inkscape:window-width="1027"
     inkscape:window-height="685"
     id="namedview136"
     showgrid="false"
     fit-margin-top="0"
     fit-margin-left="0"
     fit-margin-right="0"
     fit-margin-bottom="0"
     inkscape:zoom="0.13169643"
     inkscape:cx="735.0678"
     inkscape:cy="875"
     inkscape:window-x="327"
     inkscape:window-y="121"
     inkscape:window-maximized="0"
     inkscape:current-layer="svg132" />
  <path
     d="m 28.31444,104.8336 q 0,-2.028 -1.48202,-3.51 -1.48202,-1.482 -3.51006,-1.482 -2.02803,0 -3.51005,1.482 -1.48202,1.482 -1.48202,3.51 0,2.0281 1.48202,3.5101 1.48202,1.482 3.51005,1.482 2.02804,0 3.51006,-1.482 1.48202,-1.482 1.48202,-3.5101 z M 78.54723,72.0731 25.3504,125.27 q -2.88605,2.886 -7.02011,2.886 -4.056067,0 -7.098114,-2.886 l -8.26813,-8.4242 Q 0,114.0378 0,109.8257 0,105.6916 2.964046,102.7276 L 56.08288,49.6088 q 3.04204,7.6441 8.93114,13.5332 5.88909,5.8891 13.53321,8.9311 z M 128,38.1426 q 0,3.042 -1.79403,8.2681 -3.66606,10.4522 -12.8312,16.9653 -9.16514,6.5131 -20.16331,6.5131 -14.43023,0 -24.68739,-10.2572 -10.25716,-10.2571 -10.25716,-24.6874 0,-14.4302 10.25716,-24.6873 Q 78.78123,0 93.21146,0 q 4.52407,0 9.47714,1.287 4.95308,1.287 8.38514,3.6271 1.24802,0.858 1.24802,2.184 0,1.326 -1.24802,2.184 l -22.85436,13.1822 0,17.4723 15.05423,8.3462 q 0.39001,-0.2341 6.1621,-3.7831 5.77209,-3.5491 10.56917,-6.3181 4.79707,-2.769 5.49908,-2.769 1.17002,0 1.83303,0.78 0.66301,0.78 0.66301,1.95 z"
     id="path134"
     inkscape:connector-curvature="0" />
</svg>
