<?xml version="1.0" encoding="UTF-8" standalone="no"?>
<svg
   xmlns:dc="http://purl.org/dc/elements/1.1/"
   xmlns:cc="http://creativecommons.org/ns#"
   xmlns:rdf="http://www.w3.org/1999/02/22-rdf-syntax-ns#"
   xmlns:svg="http://www.w3.org/2000/svg"
   xmlns="http://www.w3.org/2000/svg"
   xmlns:sodipodi="http://sodipodi.sourceforge.net/DTD/sodipodi-0.dtd"
   xmlns:inkscape="http://www.inkscape.org/namespaces/inkscape"
   width="32"
   height="29.350004"
   viewBox="0 0 32 29.350004"
   id="svg22"
   version="1.1"
   inkscape:version="0.91 r13725"
   sodipodi:docname="cogs_32.svg">
  <metadata
     id="metadata30">
    <rdf:RDF>
      <cc:Work
         rdf:about="">
        <dc:format>image/svg+xml</dc:format>
        <dc:type
           rdf:resource="http://purl.org/dc/dcmitype/StillImage" />
        <dc:title></dc:title>
      </cc:Work>
    </rdf:RDF>
  </metadata>
  <defs
     id="defs28" />
  <sodipodi:namedview
     pagecolor="#ffffff"
     bordercolor="#666666"
     borderopacity="1"
     objecttolerance="10"
     gridtolerance="10"
     guidetolerance="10"
     inkscape:pageopacity="0"
     inkscape:pageshadow="2"
     inkscape:window-width="1078"
     inkscape:window-height="677"
     id="namedview26"
     showgrid="false"
     fit-margin-top="0"
     fit-margin-left="0"
     fit-margin-right="0"
     fit-margin-bottom="0"
     inkscape:zoom="16.183984"
     inkscape:cx="16"
     inkscape:cy="14.675002"
     inkscape:window-x="80"
     inkscape:window-y="59"
     inkscape:window-maximized="0"
     inkscape:current-layer="svg22" />
  <path
     d="m 14.933333,14.666685 q 0,-1.76668 -1.25,-3.01668 -1.25,-1.25 -3.016666,-1.25 -1.766667,0 -3.016667,1.25 -1.25,1.25 -1.25,3.01668 0,1.76665 1.25,3.01665 1.25,1.25 3.016667,1.25 1.766666,0 3.016666,-1.25 1.25,-1.25 1.25,-3.01665 z m 12.799999,8.53332 q 0,-0.86667 -0.633332,-1.5 -0.633333,-0.63332 -1.5,-0.63332 -0.866667,0 -1.5,0.63332 -0.633333,0.63333 -0.633333,1.5 0,0.88333 0.625,1.50833 0.625,0.625 1.508333,0.625 0.883332,0 1.508332,-0.625 0.625,-0.625 0.625,-1.50833 z m 0,-17.066675 q 0,-0.86665 -0.633332,-1.5 -0.633333,-0.633325 -1.5,-0.633325 -0.866667,0 -1.5,0.633325 -0.633333,0.63335 -0.633333,1.5 0,0.88335 0.625,1.50835 0.625,0.625 1.508333,0.625 0.883332,0 1.508332,-0.625 0.625,-0.625 0.625,-1.50835 z m -6.399999,7.016675 0,3.08333 q 0,0.16667 -0.116666,0.325 Q 21.1,16.716685 20.95,16.733335 l -2.583333,0.4 q -0.183334,0.58335 -0.533334,1.26667 0.566667,0.8 1.5,1.91668 0.116667,0.16665 0.116667,0.33332 0,0.2 -0.116667,0.31668 -0.383333,0.5 -1.375,1.49165 -0.991666,0.99167 -1.308333,0.99167 -0.183333,0 -0.35,-0.11667 l -1.916667,-1.5 q -0.616666,0.31667 -1.283333,0.51667 -0.183333,1.8 -0.383333,2.58333 -0.116667,0.4 -0.5,0.4 l -3.1000003,0 q -0.1833335,0 -0.3333335,-0.125 -0.15,-0.125 -0.1666665,-0.29165 l -0.3833335,-2.55001 q -0.5666665,-0.16667 -1.25,-0.51667 l -1.9666665,1.48333 Q 4.9,23.450005 4.6833332,23.450005 q -0.1833332,0 -0.35,-0.13332 -2.4,-2.21668 -2.4,-2.66668 0,-0.15 0.1166668,-0.31667 0.1666667,-0.23333 0.6833332,-0.88333 0.5166668,-0.65 0.7833335,-1.01667 -0.3833335,-0.73333 -0.5833335,-1.36665 L 0.4,16.666685 Q 0.23333325,16.649935 0.11666675,16.508335 0,16.366685 0,16.183335 l 0,-3.08333 q 0,-0.16667 0.11666675,-0.325 0.1166665,-0.15832 0.2666665,-0.175 l 2.58333345,-0.4 Q 3.15,11.61668 3.5,10.93333 2.9333332,10.13333 2,9.01668 1.8833332,8.83333 1.8833332,8.68333 q 0,-0.2 0.1166668,-0.333325 0.3666667,-0.5 1.3666667,-1.483325 1,-0.98335 1.3166665,-0.98335 0.1833335,0 0.35,0.116675 l 1.9166668,1.5 q 0.5666667,-0.3 1.2833332,-0.533325 0.1833335,-1.8 0.3833335,-2.566675 0.1166665,-0.4 0.5,-0.4 l 3.1000003,0 q 0.183333,0 0.333333,0.125 0.15,0.125 0.166667,0.291675 L 13.1,6.96668 q 0.566667,0.16665 1.25,0.51665 L 16.316667,6.000005 Q 16.45,5.88333 16.65,5.88333 q 0.183333,0 0.35,0.13335 2.4,2.21665 2.4,2.66665 0,0.15 -0.116667,0.316675 -0.2,0.266675 -0.7,0.9 -0.5,0.633325 -0.75,1 0.383334,0.8 0.566667,1.36668 l 2.533333,0.38332 q 0.166667,0.0333 0.283334,0.175 0.116666,0.14168 0.116666,0.325 z M 32,22.033335 l 0,2.33334 q 0,0.26665 -2.483333,0.51665 -0.2,0.45001 -0.5,0.86668 0.85,1.88332 0.85,2.3 0,0.0667 -0.06667,0.11668 -2.03333,1.18332 -2.066665,1.18332 -0.133332,0 -0.766665,-0.78332 -0.633335,-0.78335 -0.866667,-1.13335 -0.333333,0.0333 -0.5,0.0333 -0.166668,0 -0.5,-0.0333 -0.233333,0.35 -0.866667,1.13335 -0.633333,0.78332 -0.766666,0.78332 -0.03333,0 -2.066667,-1.18332 -0.06667,-0.05 -0.06667,-0.11668 0,-0.41668 0.85,-2.3 -0.3,-0.41667 -0.5,-0.86668 Q 19.2,24.633325 19.2,24.366675 l 0,-2.33334 q 0,-0.26665 2.483333,-0.51665 0.216667,-0.48335 0.5,-0.86668 -0.85,-1.88332 -0.85,-2.3 0,-0.0667 0.06667,-0.11667 0.06667,-0.0333 0.583333,-0.33333 0.516667,-0.3 0.983334,-0.56667 0.466666,-0.26665 0.5,-0.26665 0.133333,0 0.766666,0.775 0.633334,0.77499 0.866667,1.125 0.333332,-0.0333 0.5,-0.0333 0.166667,0 0.5,0.0333 0.85,-1.18335 1.533332,-1.86668 l 0.1,-0.0333 q 0.06667,0 2.066668,1.16665 0.06667,0.05 0.06667,0.11667 0,0.41668 -0.85,2.3 0.283333,0.38333 0.5,0.86668 Q 32,21.766685 32,22.033335 Z M 32,4.96668 32,7.300005 q 0,0.266675 -2.483333,0.516675 -0.2,0.45 -0.5,0.86665 0.85,1.88335 0.85,2.3 0,0.06667 -0.06667,0.116675 -2.033333,1.18333 -2.066668,1.18333 -0.133329,0 -0.766662,-0.78333 Q 26.333332,10.71668 26.1,10.36668 q -0.333333,0.03332 -0.5,0.03332 -0.166668,0 -0.5,-0.03333 -0.233333,0.35 -0.866667,1.133325 -0.633333,0.783335 -0.766666,0.783335 -0.03333,0 -2.066667,-1.183335 -0.06667,-0.05 -0.06667,-0.116675 0,-0.41665 0.85,-2.3 -0.3,-0.41665 -0.5,-0.86665 Q 19.2,7.56668 19.2,7.300005 l 0,-2.333325 q 0,-0.266675 2.483333,-0.516675 0.216667,-0.483325 0.5,-0.866675 -0.85,-1.883325 -0.85,-2.3 0,-0.06665 0.06667,-0.11665 0.06667,-0.03335 0.583333,-0.33335 0.516667,-0.3 0.983334,-0.56665 0.466666,-0.266675 0.5,-0.266675 0.133333,0 0.766666,0.775 0.633334,0.775 0.866667,1.125 0.333332,-0.03333 0.5,-0.03333 0.166667,0 0.5,0.03333 0.85,-1.183325 1.533332,-1.866675 L 27.733335,0 q 0.06667,0 2.066668,1.166675 0.06667,0.05 0.06667,0.11665 0,0.416675 -0.85,2.3 Q 29.3,3.96668 29.516667,4.450005 32,4.700005 32,4.96668 Z"
     id="path24"
     inkscape:connector-curvature="0" />
</svg>
