<?xml version="1.0" encoding="UTF-8" standalone="no"?>
<svg
   xmlns:dc="http://purl.org/dc/elements/1.1/"
   xmlns:cc="http://creativecommons.org/ns#"
   xmlns:rdf="http://www.w3.org/1999/02/22-rdf-syntax-ns#"
   xmlns:svg="http://www.w3.org/2000/svg"
   xmlns="http://www.w3.org/2000/svg"
   xmlns:sodipodi="http://sodipodi.sourceforge.net/DTD/sodipodi-0.dtd"
   xmlns:inkscape="http://www.inkscape.org/namespaces/inkscape"
   width="32"
   height="30.230776"
   viewBox="0 0 32 30.230775"
   id="svg82"
   version="1.1"
   inkscape:version="0.91 r13725"
   sodipodi:docname="puzzle-piece_32.svg">
  <metadata
     id="metadata90">
    <rdf:RDF>
      <cc:Work
         rdf:about="">
        <dc:format>image/svg+xml</dc:format>
        <dc:type
           rdf:resource="http://purl.org/dc/dcmitype/StillImage" />
        <dc:title></dc:title>
      </cc:Work>
    </rdf:RDF>
  </metadata>
  <defs
     id="defs88" />
  <sodipodi:namedview
     pagecolor="#ffffff"
     bordercolor="#666666"
     borderopacity="1"
     objecttolerance="10"
     gridtolerance="10"
     guidetolerance="10"
     inkscape:pageopacity="0"
     inkscape:pageshadow="2"
     inkscape:window-width="956"
     inkscape:window-height="752"
     id="namedview86"
     showgrid="false"
     fit-margin-top="0"
     fit-margin-left="0"
     fit-margin-right="0"
     fit-margin-bottom="0"
     inkscape:zoom="0.13169643"
     inkscape:cx="832"
     inkscape:cy="676"
     inkscape:window-x="0"
     inkscape:window-y="0"
     inkscape:window-maximized="0"
     inkscape:current-layer="svg82" />
  <path
     d="m 32,21.115405 q 0,1.55767 -0.85577,2.59615 -0.855767,1.03845 -2.375,1.03845 -0.78846,0 -1.490385,-0.33653 -0.701922,-0.33655 -1.134615,-0.73077 -0.432693,-0.39423 -1.086537,-0.73078 -0.653848,-0.33652 -1.365385,-0.33652 -2.115385,0 -2.115385,2.3846 0,0.75 0.307692,2.21155 0.307693,1.46152 0.288463,2.21152 l 0,0.0962 q -0.423078,0 -0.634615,0.0192 -0.653848,0.0577 -1.875,0.22115 -1.221155,0.16345 -2.221155,0.2596 -1,0.0962 -1.884615,0.0962 -1.173078,0 -1.98077,-0.50963 -0.807693,-0.50962 -0.807693,-1.60577 0,-0.71153 0.33654,-1.36538 0.336538,-0.65385 0.730768,-1.08655 0.394232,-0.43267 0.73077,-1.1346 0.336537,-0.70192 0.336537,-1.4904 0,-1.51922 -1.03846,-2.375 -1.038462,-0.85575 -2.596155,-0.85575 -1.615385,0 -2.7499992,0.875 -1.1346153,0.875 -1.1346153,2.4519 0,0.82693 0.2884615,1.59618 0.2884615,0.76922 0.6442308,1.24037 0.3557692,0.47115 0.6442307,1.01923 Q 9.25,27.423075 9.25,27.846155 q 0,0.8654 -0.8846155,1.71155 -0.7115383,0.67307 -2.25,0.67307 -1.826923,0 -4.7115383,-0.46155 -0.173077,-0.0384 -0.5288462,-0.0769 -0.35576925,-0.0385 -0.52884625,-0.0769 l -0.25,-0.0385 q -0.01923,0 -0.05769225,-0.0192 Q 0,29.557705 0,29.538475 L 0,9.846155 q 0.0384615,0.0192 0.3365385,0.0673 0.298077,0.0481 0.653846,0.0961 0.3557692,0.0481 0.4134617,0.0673 2.8846153,0.46155 4.7115383,0.46155 1.5384617,0 2.25,-0.67307 Q 9.25,9.019225 9.25,8.15385 9.25,7.730775 8.9615385,7.1827 8.673077,6.634625 8.3173078,6.163475 7.9615385,5.692325 7.673077,4.923075 7.3846155,4.15385 7.3846155,3.326925 7.3846155,1.75 8.5192308,0.875 9.653845,0 11.288463,0 q 1.53846,0 2.576922,0.855775 1.03846,0.855775 1.03846,2.375 0,0.78845 -0.336537,1.490375 -0.336538,0.701925 -0.73077,1.134625 -0.39423,0.4327 -0.730768,1.08655 -0.33654,0.653825 -0.33654,1.365375 0,1.096155 0.807693,1.605775 0.807692,0.5096 1.98077,0.5096 1.23077,0 3.461537,-0.28845 2.23077,-0.28847 3.134615,-0.32692 l 0,0.0385 q -0.01922,0.0385 -0.06731,0.33655 -0.04808,0.29807 -0.09615,0.65385 -0.04808,0.35577 -0.06731,0.41345 -0.46154,2.88462 -0.46154,4.71155 0,1.53845 0.673077,2.25 0.846155,0.8846 1.71154,0.8846 0.423075,0 0.971153,-0.28845 0.548077,-0.28848 1.01923,-0.64423 0.471155,-0.35577 1.240385,-0.64425 0.769232,-0.28845 1.596155,-0.28845 1.576922,0 2.451922,1.13463 0.875,1.1346 0.875,2.75 z"
     id="path84"
     inkscape:connector-curvature="0" />
</svg>
