<?xml version="1.0" encoding="UTF-8" standalone="no"?>
<svg
   xmlns:dc="http://purl.org/dc/elements/1.1/"
   xmlns:cc="http://creativecommons.org/ns#"
   xmlns:rdf="http://www.w3.org/1999/02/22-rdf-syntax-ns#"
   xmlns:svg="http://www.w3.org/2000/svg"
   xmlns="http://www.w3.org/2000/svg"
   xmlns:sodipodi="http://sodipodi.sourceforge.net/DTD/sodipodi-0.dtd"
   xmlns:inkscape="http://www.inkscape.org/namespaces/inkscape"
   width="128"
   height="96"
   viewBox="0 0 128 96"
   id="svg112"
   version="1.1"
   inkscape:version="0.91 r13725"
   sodipodi:docname="user-plus.svg">
  <metadata
     id="metadata120">
    <rdf:RDF>
      <cc:Work
         rdf:about="">
        <dc:format>image/svg+xml</dc:format>
        <dc:type
           rdf:resource="http://purl.org/dc/dcmitype/StillImage" />
        <dc:title></dc:title>
      </cc:Work>
    </rdf:RDF>
  </metadata>
  <defs
     id="defs118" />
  <sodipodi:namedview
     pagecolor="#ffffff"
     bordercolor="#666666"
     borderopacity="1"
     objecttolerance="10"
     gridtolerance="10"
     guidetolerance="10"
     inkscape:pageopacity="0"
     inkscape:pageshadow="2"
     inkscape:window-width="1037"
     inkscape:window-height="579"
     id="namedview116"
     showgrid="false"
     fit-margin-top="0"
     fit-margin-left="0"
     fit-margin-right="0"
     fit-margin-bottom="0"
     inkscape:zoom="0.13169643"
     inkscape:cx="1024"
     inkscape:cy="768"
     inkscape:window-x="205"
     inkscape:window-y="237"
     inkscape:window-maximized="0"
     inkscape:current-layer="svg112" />
  <path
     d="M 44,48 Q 34.0625,48 27.03125,40.9688 20,33.9375 20,24 20,14.0625 27.03125,7.0313 34.0625,0 44,0 53.9375,0 60.96875,7.0313 68,14.0625 68,24 68,33.9375 60.96875,40.9688 53.9375,48 44,48 Z m 60,8 22,0 q 0.8125,0 1.40625,0.5938 Q 128,57.1875 128,58 l 0,12 q 0,0.8125 -0.59375,1.4063 Q 126.8125,72 126,72 l -22,0 0,22 q 0,0.8125 -0.59375,1.4063 Q 102.8125,96 102,96 L 90,96 Q 89.1875,96 88.59375,95.4063 88,94.8125 88,94 L 88,72 66,72 Q 65.1875,72 64.59375,71.4063 64,70.8125 64,70 L 64,58 Q 64,57.1875 64.59375,56.5938 65.1875,56 66,56 l 22,0 0,-22 Q 88,33.1875 88.59375,32.5938 89.1875,32 90,32 l 12,0 q 0.8125,0 1.40625,0.5938 Q 104,33.1875 104,34 l 0,22 z M 58,70 q 0,3.25 2.375,5.625 Q 62.75,78 66,78 l 16,0 0,14.875 Q 77.75,96 71.3125,96 l -54.625,0 Q 9.125,96 4.5625,91.6875 0,87.375 0,79.8125 0,76.5 0.21875,73.3438 0.4375,70.1875 1.09375,66.5313 1.75,62.875 2.75,59.75 3.75,56.625 5.4375,53.6563 7.125,50.6875 9.3125,48.5938 11.5,46.5 14.65625,45.25 17.8125,44 21.625,44 22.8125,44 24.0625,45.0625 29,48.875 33.71875,50.7813 38.4375,52.6875 44,52.6875 q 5.5625,0 10.28125,-1.9062 Q 59,48.875 63.9375,45.0625 65.1875,44 66.375,44 q 8.25,0 13.5625,6 L 66,50 Q 62.75,50 60.375,52.375 58,54.75 58,58 l 0,12 z"
     id="path114"
     inkscape:connector-curvature="0" />
</svg>
