<?xml version="1.0" encoding="UTF-8" standalone="no"?>
<svg
   xmlns:dc="http://purl.org/dc/elements/1.1/"
   xmlns:cc="http://creativecommons.org/ns#"
   xmlns:rdf="http://www.w3.org/1999/02/22-rdf-syntax-ns#"
   xmlns:svg="http://www.w3.org/2000/svg"
   xmlns="http://www.w3.org/2000/svg"
   xmlns:sodipodi="http://sodipodi.sourceforge.net/DTD/sodipodi-0.dtd"
   xmlns:inkscape="http://www.inkscape.org/namespaces/inkscape"
   width="128"
   height="128"
   viewBox="0 0 128 128"
   id="svg52"
   version="1.1"
   inkscape:version="0.91 r13725"
   sodipodi:docname="cube.svg">
  <metadata
     id="metadata60">
    <rdf:RDF>
      <cc:Work
         rdf:about="">
        <dc:format>image/svg+xml</dc:format>
        <dc:type
           rdf:resource="http://purl.org/dc/dcmitype/StillImage" />
        <dc:title></dc:title>
      </cc:Work>
    </rdf:RDF>
  </metadata>
  <defs
     id="defs58" />
  <sodipodi:namedview
     pagecolor="#ffffff"
     bordercolor="#666666"
     borderopacity="1"
     objecttolerance="10"
     gridtolerance="10"
     guidetolerance="10"
     inkscape:pageopacity="0"
     inkscape:pageshadow="2"
     inkscape:window-width="1127"
     inkscape:window-height="785"
     id="namedview56"
     showgrid="false"
     fit-margin-top="0"
     fit-margin-left="0"
     fit-margin-right="0"
     fit-margin-bottom="0"
     inkscape:zoom="0.13169643"
     inkscape:cx="896"
     inkscape:cy="896"
     inkscape:window-x="172"
     inkscape:window-y="58"
     inkscape:window-maximized="0"
     inkscape:current-layer="svg52" />
  <path
     d="m 68.923077,115.4615 49.230773,-26.8461 0,-48.9231 -49.230773,17.9231 0,57.8461 z M 64,48.9231 117.69231,29.3846 64,9.8462 10.307692,29.3846 Z m 64,-19.3846 0,59.0769 q 0,2.6923 -1.38462,5 -1.38461,2.3077 -3.76923,3.6154 L 68.692308,126.7692 Q 66.538462,128 64,128 q -2.538462,0 -4.692308,-1.2308 L 5.1538462,97.2308 Q 2.7692308,95.9231 1.3846154,93.6154 0,91.3077 0,88.6154 L 0,29.5385 q 0,-3.077 1.7692308,-5.6154 1.7692307,-2.5385 4.6923077,-3.6154 L 60.615385,0.6154 Q 62.307692,0 64,0 q 1.692308,0 3.384615,0.6154 l 54.153845,19.6923 q 2.92308,1.0769 4.69231,3.6154 Q 128,26.4615 128,29.5385 Z"
     id="path54"
     inkscape:connector-curvature="0" />
</svg>
