<?xml version="1.0" encoding="UTF-8" standalone="no"?>
<svg
   xmlns:dc="http://purl.org/dc/elements/1.1/"
   xmlns:cc="http://creativecommons.org/ns#"
   xmlns:rdf="http://www.w3.org/1999/02/22-rdf-syntax-ns#"
   xmlns:svg="http://www.w3.org/2000/svg"
   xmlns="http://www.w3.org/2000/svg"
   xmlns:sodipodi="http://sodipodi.sourceforge.net/DTD/sodipodi-0.dtd"
   xmlns:inkscape="http://www.inkscape.org/namespaces/inkscape"
   width="128"
   height="82.285698"
   viewBox="0 0 128 82.285698"
   id="svg32"
   version="1.1"
   inkscape:version="0.91 r13725"
   sodipodi:docname="eye.svg">
  <metadata
     id="metadata40">
    <rdf:RDF>
      <cc:Work
         rdf:about="">
        <dc:format>image/svg+xml</dc:format>
        <dc:type
           rdf:resource="http://purl.org/dc/dcmitype/StillImage" />
        <dc:title></dc:title>
      </cc:Work>
    </rdf:RDF>
  </metadata>
  <defs
     id="defs38" />
  <sodipodi:namedview
     pagecolor="#ffffff"
     bordercolor="#666666"
     borderopacity="1"
     objecttolerance="10"
     gridtolerance="10"
     guidetolerance="10"
     inkscape:pageopacity="0"
     inkscape:pageshadow="2"
     inkscape:window-width="1071"
     inkscape:window-height="671"
     id="namedview36"
     showgrid="false"
     fit-margin-top="0"
     fit-margin-left="0"
     fit-margin-right="0"
     fit-margin-bottom="0"
     inkscape:zoom="0.13169643"
     inkscape:cx="896"
     inkscape:cy="640"
     inkscape:window-x="178"
     inkscape:window-y="117"
     inkscape:window-maximized="0"
     inkscape:current-layer="svg32" />
  <path
     d="M 118.85714,41.1428 Q 108,24.2857 91.642857,15.9286 96,23.3571 96,32 96,45.2143 86.607143,54.6071 77.214286,64 64,64 50.785714,64 41.392857,54.6071 32,45.2143 32,32 32,23.3571 36.357143,15.9286 20,24.2857 9.1428571,41.1428 18.642857,55.7857 32.964286,64.4643 47.285714,73.1428 64,73.1428 q 16.714286,0 31.035714,-8.6785 14.321426,-8.6786 23.821426,-23.3215 z M 67.428571,13.7143 q 0,-1.4286 -1,-2.4286 -1,-1 -2.428571,-1 -8.928571,0 -15.321429,6.3929 -6.392857,6.3928 -6.392857,15.3214 0,1.4286 1,2.4286 1,1 2.428572,1 1.428571,0 2.428571,-1 1,-1 1,-2.4286 0,-6.1429 4.357143,-10.5 4.357143,-4.3572 10.5,-4.3572 1.428571,0 2.428571,-1 1,-1 1,-2.4285 z M 128,41.1428 q 0,2.4286 -1.42857,4.9286 -10,16.4286 -26.892859,26.3214 Q 82.785714,82.2857 64,82.2857 45.214286,82.2857 28.321429,72.3571 11.428571,62.4286 1.4285714,46.0714 0,43.5714 0,41.1428 0,38.7143 1.4285714,36.2143 11.428571,19.8571 28.321429,9.9286 45.214286,0 64,0 82.785714,0 99.678571,9.9286 116.57143,19.8571 126.57143,36.2143 128,38.7143 128,41.1428 Z"
     id="path34"
     inkscape:connector-curvature="0" />
</svg>
