<?xml version="1.0" encoding="UTF-8" standalone="no"?>
<svg
   xmlns:dc="http://purl.org/dc/elements/1.1/"
   xmlns:cc="http://creativecommons.org/ns#"
   xmlns:rdf="http://www.w3.org/1999/02/22-rdf-syntax-ns#"
   xmlns:svg="http://www.w3.org/2000/svg"
   xmlns="http://www.w3.org/2000/svg"
   xmlns:sodipodi="http://sodipodi.sourceforge.net/DTD/sodipodi-0.dtd"
   xmlns:inkscape="http://www.inkscape.org/namespaces/inkscape"
   width="128"
   height="100.5714"
   viewBox="0 0 128 100.5714"
   id="svg72"
   version="1.1"
   inkscape:version="0.91 r13725"
   sodipodi:docname="list.svg">
  <metadata
     id="metadata80">
    <rdf:RDF>
      <cc:Work
         rdf:about="">
        <dc:format>image/svg+xml</dc:format>
        <dc:type
           rdf:resource="http://purl.org/dc/dcmitype/StillImage" />
        <dc:title></dc:title>
      </cc:Work>
    </rdf:RDF>
  </metadata>
  <defs
     id="defs78" />
  <sodipodi:namedview
     pagecolor="#ffffff"
     bordercolor="#666666"
     borderopacity="1"
     objecttolerance="10"
     gridtolerance="10"
     guidetolerance="10"
     inkscape:pageopacity="0"
     inkscape:pageshadow="2"
     inkscape:window-width="1021"
     inkscape:window-height="692"
     id="namedview76"
     showgrid="false"
     fit-margin-top="0"
     fit-margin-left="0"
     fit-margin-right="0"
     fit-margin-bottom="0"
     inkscape:zoom="0.13169643"
     inkscape:cx="896"
     inkscape:cy="640"
     inkscape:window-x="325"
     inkscape:window-y="83"
     inkscape:window-maximized="0"
     inkscape:current-layer="svg72" />
  <path
     d="m 18.285714,84.5714 0,13.7143 q 0,0.9286 -0.678571,1.6071 Q 16.928571,100.5714 16,100.5714 l -13.7142857,0 q -0.9285714,0 -1.60714287,-0.6786 Q 0,99.2143 0,98.2857 L 0,84.5714 Q 0,83.6428 0.67857143,82.9643 1.3571429,82.2857 2.2857143,82.2857 L 16,82.2857 q 0.928571,0 1.607143,0.6786 0.678571,0.6785 0.678571,1.6071 z m 0,-27.4286 0,13.7143 q 0,0.9286 -0.678571,1.6072 Q 16.928571,73.1428 16,73.1428 l -13.7142857,0 q -0.9285714,0 -1.60714287,-0.6785 Q 0,71.7857 0,70.8571 L 0,57.1428 Q 0,56.2143 0.67857143,55.5357 1.3571429,54.8571 2.2857143,54.8571 L 16,54.8571 q 0.928571,0 1.607143,0.6786 0.678571,0.6786 0.678571,1.6071 z m 0,-27.4285 0,13.7142 q 0,0.9286 -0.678571,1.6072 Q 16.928571,45.7143 16,45.7143 l -13.7142857,0 q -0.9285714,0 -1.60714287,-0.6786 Q 0,44.3571 0,43.4285 L 0,29.7143 Q 0,28.7857 0.67857143,28.1071 1.3571429,27.4285 2.2857143,27.4285 L 16,27.4285 q 0.928571,0 1.607143,0.6786 0.678571,0.6786 0.678571,1.6072 z M 128,84.5714 l 0,13.7143 q 0,0.9286 -0.67857,1.6071 -0.67857,0.6786 -1.60714,0.6786 l -96.000004,0 q -0.928572,0 -1.607143,-0.6786 -0.678572,-0.6785 -0.678572,-1.6071 l 0,-13.7143 q 0,-0.9286 0.678572,-1.6071 0.678571,-0.6786 1.607143,-0.6786 l 96.000004,0 q 0.92857,0 1.60714,0.6786 Q 128,83.6428 128,84.5714 Z M 18.285714,2.2857 l 0,13.7143 q 0,0.9285 -0.678571,1.6071 Q 16.928571,18.2857 16,18.2857 l -13.7142857,0 q -0.9285714,0 -1.60714287,-0.6786 Q 0,16.9285 0,16 L 0,2.2857 Q 0,1.3571 0.67857143,0.6785 1.3571429,0 2.2857143,0 L 16,0 q 0.928571,0 1.607143,0.6785 0.678571,0.6786 0.678571,1.6072 z M 128,57.1428 l 0,13.7143 q 0,0.9286 -0.67857,1.6072 -0.67857,0.6785 -1.60714,0.6785 l -96.000004,0 q -0.928572,0 -1.607143,-0.6785 -0.678572,-0.6786 -0.678572,-1.6072 l 0,-13.7143 q 0,-0.9285 0.678572,-1.6071 0.678571,-0.6786 1.607143,-0.6786 l 96.000004,0 q 0.92857,0 1.60714,0.6786 Q 128,56.2143 128,57.1428 Z m 0,-27.4285 0,13.7142 q 0,0.9286 -0.67857,1.6072 -0.67857,0.6786 -1.60714,0.6786 l -96.000004,0 q -0.928572,0 -1.607143,-0.6786 -0.678572,-0.6786 -0.678572,-1.6072 l 0,-13.7142 q 0,-0.9286 0.678572,-1.6072 0.678571,-0.6786 1.607143,-0.6786 l 96.000004,0 q 0.92857,0 1.60714,0.6786 Q 128,28.7857 128,29.7143 Z M 128,2.2857 128,16 q 0,0.9285 -0.67857,1.6071 -0.67857,0.6786 -1.60714,0.6786 l -96.000004,0 q -0.928572,0 -1.607143,-0.6786 Q 27.428571,16.9285 27.428571,16 l 0,-13.7143 q 0,-0.9286 0.678572,-1.6072 Q 28.785714,0 29.714286,0 l 96.000004,0 q 0.92857,0 1.60714,0.6785 Q 128,1.3571 128,2.2857 Z"
     id="path74"
     inkscape:connector-curvature="0" />
</svg>
