<?xml version="1.0" encoding="UTF-8" standalone="no"?>
<svg
   xmlns:dc="http://purl.org/dc/elements/1.1/"
   xmlns:cc="http://creativecommons.org/ns#"
   xmlns:rdf="http://www.w3.org/1999/02/22-rdf-syntax-ns#"
   xmlns:svg="http://www.w3.org/2000/svg"
   xmlns="http://www.w3.org/2000/svg"
   xmlns:sodipodi="http://sodipodi.sourceforge.net/DTD/sodipodi-0.dtd"
   xmlns:inkscape="http://www.inkscape.org/namespaces/inkscape"
   width="48"
   height="37.714275"
   viewBox="0 0 48 37.714274"
   id="svg72"
   version="1.1"
   inkscape:version="0.91 r13725"
   sodipodi:docname="list_48.svg">
  <metadata
     id="metadata80">
    <rdf:RDF>
      <cc:Work
         rdf:about="">
        <dc:format>image/svg+xml</dc:format>
        <dc:type
           rdf:resource="http://purl.org/dc/dcmitype/StillImage" />
        <dc:title></dc:title>
      </cc:Work>
    </rdf:RDF>
  </metadata>
  <defs
     id="defs78" />
  <sodipodi:namedview
     pagecolor="#ffffff"
     bordercolor="#666666"
     borderopacity="1"
     objecttolerance="10"
     gridtolerance="10"
     guidetolerance="10"
     inkscape:pageopacity="0"
     inkscape:pageshadow="2"
     inkscape:window-width="1021"
     inkscape:window-height="692"
     id="namedview76"
     showgrid="false"
     fit-margin-top="0"
     fit-margin-left="0"
     fit-margin-right="0"
     fit-margin-bottom="0"
     inkscape:zoom="0.13169643"
     inkscape:cx="-698.57625"
     inkscape:cy="640"
     inkscape:window-x="325"
     inkscape:window-y="106"
     inkscape:window-maximized="0"
     inkscape:current-layer="svg72" />
  <path
     d="m 6.8571427,31.714275 0,5.142862 q 0,0.348228 -0.2544641,0.602658 Q 6.3482141,37.714275 6,37.714275 l -5.14285714,0 q -0.34821427,0 -0.60267857,-0.25448 Q 0,37.205365 0,36.857137 L 0,31.714275 Q 0,31.36605 0.25446429,31.111613 0.50892859,30.857137 0.85714286,30.857137 L 6,30.857137 q 0.3482141,0 0.6026786,0.254476 0.2544642,0.254437 0.2544642,0.602662 z m 0,-10.285725 0,5.142862 q 0,0.348225 -0.2544641,0.602701 Q 6.3482141,27.42855 6,27.42855 l -5.14285714,0 q -0.34821427,0 -0.60267857,-0.254437 Q 0,26.919637 0,26.571413 L 0,21.42855 q 0,-0.348187 0.25446429,-0.602663 0.2544643,-0.254474 0.60267857,-0.254474 L 6,20.571413 q 0.3482141,0 0.6026786,0.254474 0.2544642,0.254476 0.2544642,0.602663 z m 0,-10.285688 0,5.142825 q 0,0.348225 -0.2544641,0.6027 Q 6.3482141,17.142863 6,17.142863 l -5.14285714,0 q -0.34821427,0 -0.60267857,-0.254476 Q 0,16.633913 0,16.285687 l 0,-5.142824 q 0,-0.348226 0.25446429,-0.602701 0.2544643,-0.254475 0.60267857,-0.254475 L 6,10.285687 q 0.3482141,0 0.6026786,0.254475 0.2544642,0.254475 0.2544642,0.602701 z M 48,31.714275 l 0,5.142862 q 0,0.348228 -0.254464,0.602658 -0.254463,0.25448 -0.602677,0.25448 l -36.000002,0 q -0.348214,0 -0.602678,-0.25448 -0.254465,-0.25443 -0.254465,-0.602658 l 0,-5.142862 q 0,-0.348225 0.254465,-0.602662 0.254464,-0.254476 0.602678,-0.254476 l 36.000002,0 q 0.348214,0 0.602677,0.254476 Q 48,31.36605 48,31.714275 Z M 6.8571427,0.857137 6.8571427,6 q 0,0.348187 -0.2544641,0.602662 Q 6.3482141,6.857137 6,6.857137 l -5.14285714,0 q -0.34821427,0 -0.60267857,-0.254475 Q 0,6.348187 0,6 L 0,0.857137 Q 0,0.508912 0.25446429,0.254437 0.50892859,0 0.85714286,0 L 6,0 q 0.3482141,0 0.6026786,0.254437 0.2544642,0.254475 0.2544642,0.6027 z M 48,21.42855 l 0,5.142863 q 0,0.348224 -0.254464,0.6027 -0.254463,0.254437 -0.602677,0.254437 l -36.000002,0 q -0.348214,0 -0.602678,-0.254437 -0.254465,-0.254476 -0.254465,-0.6027 l 0,-5.142863 q 0,-0.348187 0.254465,-0.602663 0.254464,-0.254475 0.602678,-0.254475 l 36.000002,0 q 0.348214,0 0.602677,0.254475 Q 48,21.080363 48,21.42855 Z m 0,-10.285687 0,5.142824 q 0,0.348226 -0.254464,0.6027 -0.254463,0.254476 -0.602677,0.254476 l -36.000002,0 q -0.348214,0 -0.602678,-0.254476 -0.254465,-0.254475 -0.254465,-0.6027 l 0,-5.142824 q 0,-0.348226 0.254465,-0.6027 0.254464,-0.254476 0.602678,-0.254476 l 36.000002,0 q 0.348214,0 0.602677,0.254476 Q 48,10.794637 48,11.142863 Z M 48,0.857137 48,6 q 0,0.348187 -0.254464,0.602662 -0.254463,0.254475 -0.602677,0.254475 l -36.000002,0 q -0.348214,0 -0.602678,-0.254475 Q 10.285714,6.348187 10.285714,6 l 0,-5.142863 q 0,-0.348225 0.254465,-0.6027 Q 10.794643,0 11.142857,0 L 47.142859,0 Q 47.491073,0 47.745536,0.254437 48,0.508912 48,0.857137 Z"
     id="path74"
     inkscape:connector-curvature="0" />
</svg>
