<?xml version="1.0" encoding="UTF-8" standalone="no"?>
<svg
   xmlns:dc="http://purl.org/dc/elements/1.1/"
   xmlns:cc="http://creativecommons.org/ns#"
   xmlns:rdf="http://www.w3.org/1999/02/22-rdf-syntax-ns#"
   xmlns:svg="http://www.w3.org/2000/svg"
   xmlns="http://www.w3.org/2000/svg"
   xmlns:sodipodi="http://sodipodi.sourceforge.net/DTD/sodipodi-0.dtd"
   xmlns:inkscape="http://www.inkscape.org/namespaces/inkscape"
   width="128"
   height="109.7143"
   viewBox="0 0 128 109.7143"
   id="svg2"
   version="1.1"
   inkscape:version="0.91 r13725"
   sodipodi:docname="medkit.svg">
  <metadata
     id="metadata10">
    <rdf:RDF>
      <cc:Work
         rdf:about="">
        <dc:format>image/svg+xml</dc:format>
        <dc:type
           rdf:resource="http://purl.org/dc/dcmitype/StillImage" />
        <dc:title></dc:title>
      </cc:Work>
    </rdf:RDF>
  </metadata>
  <defs
     id="defs8" />
  <sodipodi:namedview
     pagecolor="#ffffff"
     bordercolor="#666666"
     borderopacity="1"
     objecttolerance="10"
     gridtolerance="10"
     guidetolerance="10"
     inkscape:pageopacity="0"
     inkscape:pageshadow="2"
     inkscape:window-width="1188"
     inkscape:window-height="737"
     id="namedview6"
     showgrid="false"
     fit-margin-top="0"
     fit-margin-left="0"
     fit-margin-right="0"
     fit-margin-bottom="0"
     inkscape:zoom="0.13169643"
     inkscape:cx="896"
     inkscape:cy="768"
     inkscape:window-x="20"
     inkscape:window-y="43"
     inkscape:window-maximized="0"
     inkscape:current-layer="svg2" />
  <path
     d="m 91.428571,70.8572 0,-13.7143 q 0,-1 -0.642857,-1.6429 -0.642857,-0.6428 -1.642857,-0.6428 l -16,0 0,-16 q 0,-1 -0.642857,-1.6429 -0.642857,-0.6429 -1.642857,-0.6429 l -13.714286,0 q -1,0 -1.642857,0.6429 -0.642857,0.6429 -0.642857,1.6429 l 0,16 -16,0 q -1,0 -1.642857,0.6428 -0.642857,0.6429 -0.642857,1.6429 l 0,13.7143 q 0,1 0.642857,1.6428 0.642857,0.6429 1.642857,0.6429 l 16,0 0,16 q 0,1 0.642857,1.6428 0.642857,0.6429 1.642857,0.6429 l 13.714286,0 q 1,0 1.642857,-0.6429 0.642857,-0.6428 0.642857,-1.6428 l 0,-16 16,0 q 1,0 1.642857,-0.6429 0.642857,-0.6428 0.642857,-1.6428 z m -45.714285,-52.5715 36.571428,0 0,-9.1428 -36.571428,0 0,9.1428 z m -27.428572,0 0,91.4286 -2.285714,0 Q 9.4285714,109.7143 4.7142857,105 0,100.2857 0,93.7143 L 0,34.2857 Q 0,27.7143 4.7142857,23 9.4285714,18.2857 16,18.2857 l 2.285714,0 z m 84.571426,0 0,91.4286 -77.714283,0 0,-91.4286 11.428572,0 0,-11.4285 q 0,-2.8572 2,-4.8572 2,-2 4.857142,-2 l 41.142858,0 q 2.857142,0 4.857142,2 2,2 2,4.8572 l 0,11.4285 11.428569,0 z m 25.14286,16 0,59.4286 q 0,6.5714 -4.71429,11.2857 -4.71428,4.7143 -11.28571,4.7143 l -2.28571,0 0,-91.4286 2.28571,0 q 6.57143,0 11.28571,4.7143 Q 128,27.7143 128,34.2857 Z"
     id="path4"
     inkscape:connector-curvature="0" />
</svg>
