<?xml version="1.0" encoding="UTF-8" standalone="no"?>
<svg
   xmlns:dc="http://purl.org/dc/elements/1.1/"
   xmlns:cc="http://creativecommons.org/ns#"
   xmlns:rdf="http://www.w3.org/1999/02/22-rdf-syntax-ns#"
   xmlns:svg="http://www.w3.org/2000/svg"
   xmlns="http://www.w3.org/2000/svg"
   xmlns:sodipodi="http://sodipodi.sourceforge.net/DTD/sodipodi-0.dtd"
   xmlns:inkscape="http://www.inkscape.org/namespaces/inkscape"
   width="128"
   height="120.9231"
   viewBox="0 0 128 120.9231"
   id="svg82"
   version="1.1"
   inkscape:version="0.91 r13725"
   sodipodi:docname="puzzle-piece.svg">
  <metadata
     id="metadata90">
    <rdf:RDF>
      <cc:Work
         rdf:about="">
        <dc:format>image/svg+xml</dc:format>
        <dc:type
           rdf:resource="http://purl.org/dc/dcmitype/StillImage" />
        <dc:title></dc:title>
      </cc:Work>
    </rdf:RDF>
  </metadata>
  <defs
     id="defs88" />
  <sodipodi:namedview
     pagecolor="#ffffff"
     bordercolor="#666666"
     borderopacity="1"
     objecttolerance="10"
     gridtolerance="10"
     guidetolerance="10"
     inkscape:pageopacity="0"
     inkscape:pageshadow="2"
     inkscape:window-width="956"
     inkscape:window-height="752"
     id="namedview86"
     showgrid="false"
     fit-margin-top="0"
     fit-margin-left="0"
     fit-margin-right="0"
     fit-margin-bottom="0"
     inkscape:zoom="0.13169643"
     inkscape:cx="832"
     inkscape:cy="676"
     inkscape:window-x="237"
     inkscape:window-y="9"
     inkscape:window-maximized="0"
     inkscape:current-layer="svg82" />
  <path
     d="m 128,84.4616 q 0,6.2307 -3.42308,10.3846 -3.42307,4.1538 -9.5,4.1538 -3.15384,0 -5.96154,-1.3461 -2.80769,-1.3462 -4.53846,-2.9231 -1.73077,-1.5769 -4.34615,-2.9231 -2.61539,-1.3461 -5.46154,-1.3461 -8.46154,0 -8.46154,9.5384 0,3 1.23077,8.8462 1.23077,5.8461 1.15385,8.8461 l 0,0.3846 q -1.69231,0 -2.53846,0.077 -2.61539,0.2307 -7.5,0.8846 -4.88462,0.6538 -8.88462,1.0384 -4,0.3847 -7.53846,0.3847 -4.69231,0 -7.92308,-2.0385 -3.23077,-2.0385 -3.23077,-6.4231 0,-2.8461 1.34616,-5.4615 1.34615,-2.6154 2.92307,-4.3462 1.57693,-1.7307 2.92308,-4.5384 1.34615,-2.8077 1.34615,-5.9616 0,-6.0769 -4.15384,-9.5 -4.15385,-3.423 -10.38462,-3.423 -6.46154,0 -10.999997,3.5 -4.538461,3.5 -4.538461,9.8076 0,3.3077 1.153846,6.3847 1.153846,3.0769 2.576923,4.9615 1.423077,1.8846 2.576923,4.0769 Q 37,109.6923 37,111.3846 q 0,3.4616 -3.538462,6.8462 -2.846153,2.6923 -9,2.6923 -7.307692,0 -18.846153,-1.8462 Q 4.923077,118.9231 3.5,118.7693 2.076923,118.6154 1.384615,118.4616 l -1,-0.1539 q -0.07692,0 -0.230769,-0.077 Q 0,118.2308 0,118.1539 L 0,39.3846 q 0.153846,0.077 1.346154,0.2693 1.192308,0.1923 2.615384,0.3846 1.423077,0.1923 1.653847,0.2692 11.538461,1.8462 18.846153,1.8462 6.153847,0 9,-2.6923 Q 37,36.0769 37,32.6154 37,30.9231 35.846154,28.7308 34.692308,26.5385 33.269231,24.6539 31.846154,22.7693 30.692308,19.6923 29.538462,16.6154 29.538462,13.3077 29.538462,7 34.076923,3.5 38.61538,0 45.15385,0 q 6.15384,0 10.30769,3.4231 4.15384,3.4231 4.15384,9.5 0,3.1538 -1.34615,5.9615 -1.34615,2.8077 -2.92308,4.5385 -1.57692,1.7308 -2.92307,4.3462 -1.34616,2.6153 -1.34616,5.4615 0,4.3846 3.23077,6.4231 3.23077,2.0384 7.92308,2.0384 4.92308,0 13.84615,-1.1538 Q 85,39.3846 88.61538,39.2308 l 0,0.1538 q -0.0769,0.1539 -0.26923,1.3462 -0.1923,1.1923 -0.38461,2.6154 -0.19231,1.4231 -0.26923,1.6538 -1.84616,11.5385 -1.84616,18.8462 0,6.1538 2.69231,9 3.38462,3.5384 6.84616,3.5384 1.6923,0 3.88461,-1.1538 2.19231,-1.1539 4.07692,-2.5769 1.88462,-1.4231 4.96154,-2.577 3.07693,-1.1538 6.38462,-1.1538 6.30769,0 9.80769,4.5385 3.5,4.5384 3.5,11 z"
     id="path84"
     inkscape:connector-curvature="0" />
</svg>
