<?xml version="1.0" encoding="UTF-8" standalone="no"?>
<svg
   xmlns:dc="http://purl.org/dc/elements/1.1/"
   xmlns:cc="http://creativecommons.org/ns#"
   xmlns:rdf="http://www.w3.org/1999/02/22-rdf-syntax-ns#"
   xmlns:svg="http://www.w3.org/2000/svg"
   xmlns="http://www.w3.org/2000/svg"
   xmlns:sodipodi="http://sodipodi.sourceforge.net/DTD/sodipodi-0.dtd"
   xmlns:inkscape="http://www.inkscape.org/namespaces/inkscape"
   width="48"
   height="33.758251"
   viewBox="0 0 48 33.758251"
   id="svg102"
   version="1.1"
   inkscape:version="0.91 r13725"
   sodipodi:docname="road_48.svg">
  <metadata
     id="metadata110">
    <rdf:RDF>
      <cc:Work
         rdf:about="">
        <dc:format>image/svg+xml</dc:format>
        <dc:type
           rdf:resource="http://purl.org/dc/dcmitype/StillImage" />
        <dc:title></dc:title>
      </cc:Work>
    </rdf:RDF>
  </metadata>
  <defs
     id="defs108" />
  <sodipodi:namedview
     pagecolor="#ffffff"
     bordercolor="#666666"
     borderopacity="1"
     objecttolerance="10"
     gridtolerance="10"
     guidetolerance="10"
     inkscape:pageopacity="0"
     inkscape:pageshadow="2"
     inkscape:window-width="1142"
     inkscape:window-height="685"
     id="namedview106"
     showgrid="false"
     fit-margin-top="0"
     fit-margin-left="0"
     fit-margin-right="0"
     fit-margin-bottom="0"
     inkscape:zoom="0.1767767"
     inkscape:cx="910"
     inkscape:cy="640"
     inkscape:window-x="167"
     inkscape:window-y="0"
     inkscape:window-maximized="0"
     inkscape:current-layer="svg102" />
  <path
     d="m 27.982418,19.5165 0,-0.105488 -0.632967,-8.439562 q -0.02637,-0.342863 -0.29011,-0.593438 -0.263737,-0.250537 -0.606594,-0.250537 l -4.905494,0 q -0.342857,0 -0.606594,0.250537 -0.263736,0.250575 -0.290109,0.593438 l -0.632967,8.439562 0,0.105488 q -0.02637,0.316462 0.210988,0.527475 0.237363,0.210975 0.553847,0.210975 l 6.435165,0 q 0.316483,0 0.553846,-0.210975 0.237362,-0.211013 0.210989,-0.527475 z M 48,31.832962 q 0,1.925288 -1.213185,1.925288 l -18.567035,0 q 0.342857,0 0.58022,-0.250537 0.237363,-0.250575 0.210989,-0.5934 L 28.483516,26.162662 Q 28.457143,25.8198 28.193407,25.569225 27.92967,25.318687 27.586813,25.318687 l -7.173626,0 q -0.342857,0 -0.606594,0.250538 -0.263736,0.250575 -0.290109,0.593437 l -0.527473,6.751651 q -0.02637,0.342824 0.210989,0.5934 0.237363,0.250537 0.58022,0.250537 l -18.5670331,0 Q 0,33.75825 0,31.832962 0,30.408788 0.68571412,28.773637 L 11.683517,1.239562 Q 11.894505,0.738487 12.369231,0.369225 12.843956,0 13.371429,0 l 8.940659,0 q -0.342857,0 -0.606593,0.250575 -0.263737,0.250537 -0.29011,0.5934 L 21.01978,5.907713 q -0.02637,0.369225 0.210989,0.6066 0.237363,0.237337 0.58022,0.237337 l 4.378022,0 q 0.342857,0 0.58022,-0.237337 0.237362,-0.237375 0.210989,-0.6066 L 26.584615,0.843975 Q 26.558245,0.501112 26.294505,0.250575 26.030769,0 25.687912,0 l 8.940659,0 q 0.527473,0 1.002198,0.369225 0.474726,0.369262 0.685714,0.870337 L 47.314286,28.773637 Q 48,30.408788 48,31.832962 Z"
     id="path104"
     inkscape:connector-curvature="0" />
</svg>
