<?xml version="1.0" encoding="UTF-8" standalone="no"?>
<svg
   xmlns:dc="http://purl.org/dc/elements/1.1/"
   xmlns:cc="http://creativecommons.org/ns#"
   xmlns:rdf="http://www.w3.org/1999/02/22-rdf-syntax-ns#"
   xmlns:svg="http://www.w3.org/2000/svg"
   xmlns="http://www.w3.org/2000/svg"
   xmlns:sodipodi="http://sodipodi.sourceforge.net/DTD/sodipodi-0.dtd"
   xmlns:inkscape="http://www.inkscape.org/namespaces/inkscape"
   width="128"
   height="119.4667"
   viewBox="0 0 128 119.4667"
   id="svg122"
   version="1.1"
   inkscape:version="0.91 r13725"
   sodipodi:docname="users.svg">
  <metadata
     id="metadata130">
    <rdf:RDF>
      <cc:Work
         rdf:about="">
        <dc:format>image/svg+xml</dc:format>
        <dc:type
           rdf:resource="http://purl.org/dc/dcmitype/StillImage" />
        <dc:title></dc:title>
      </cc:Work>
    </rdf:RDF>
  </metadata>
  <defs
     id="defs128" />
  <sodipodi:namedview
     pagecolor="#ffffff"
     bordercolor="#666666"
     borderopacity="1"
     objecttolerance="10"
     gridtolerance="10"
     guidetolerance="10"
     inkscape:pageopacity="0"
     inkscape:pageshadow="2"
     inkscape:window-width="1044"
     inkscape:window-height="643"
     id="namedview126"
     showgrid="false"
     fit-margin-top="0"
     fit-margin-left="0"
     fit-margin-right="0"
     fit-margin-bottom="0"
     inkscape:zoom="0.13169643"
     inkscape:cx="960"
     inkscape:cy="896"
     inkscape:window-x="-18"
     inkscape:window-y="60"
     inkscape:window-maximized="0"
     inkscape:current-layer="svg122" />
  <path
     d="m 39.533333,59.7334 q -10.8,0.3333 -17.666666,8.5333 l -8.933334,0 q -5.466666,0 -9.2,-2.7 Q 0,62.8667 0,57.6667 0,34.1334 8.266667,34.1334 q 0.4,0 2.9,1.4 2.5,1.4 6.5,2.8333 4,1.4333 7.933333,1.4333 4.466667,0 8.866667,-1.5333 -0.333334,2.4667 -0.333334,4.4 0,9.2667 5.4,17.0667 z M 110.93333,102.2 q 0,8 -4.86666,12.6334 -4.86667,4.6333 -12.933337,4.6333 l -58.266666,0 Q 26.8,119.4667 21.933333,114.8334 17.066667,110.2 17.066667,102.2 q 0,-3.5333 0.233333,-6.9 0.233333,-3.3666 0.933333,-7.2666 0.7,-3.9 1.766667,-7.2334 1.066667,-3.3333 2.866667,-6.5 1.8,-3.1666 4.133333,-5.4 2.333333,-2.2333 5.7,-3.5666 Q 36.066667,64 40.133333,64 40.8,64 43,65.4334 q 2.2,1.4333 4.866667,3.2 2.666666,1.7666 7.133333,3.2 4.466667,1.4333 9,1.4333 4.533333,0 9,-1.4333 4.466667,-1.4334 7.133333,-3.2 Q 82.8,66.8667 85,65.4334 87.2,64 87.866667,64 91.933333,64 95.3,65.3334 q 3.366667,1.3333 5.7,3.5666 2.33333,2.2334 4.13333,5.4 1.8,3.1667 2.86667,6.5 1.06667,3.3334 1.76667,7.2334 0.7,3.9 0.93333,7.2666 0.23333,3.3667 0.23333,6.9 z M 42.666667,17.0667 q 0,7.0667 -5,12.0667 -5,5 -12.066667,5 -7.066667,0 -12.066667,-5 -5,-5 -5,-12.0667 0,-7.0667 5,-12.0667 5,-5 12.066667,-5 7.066667,0 12.066667,5 5,5 5,12.0667 z M 89.6,42.6667 q 0,10.6 -7.5,18.1 -7.5,7.5 -18.1,7.5 -10.6,0 -18.1,-7.5 -7.5,-7.5 -7.5,-18.1 0,-10.6 7.5,-18.1 7.5,-7.5 18.1,-7.5 10.6,0 18.1,7.5 7.5,7.5 7.5,18.1 z m 38.4,15 q 0,5.2 -3.73333,7.9 -3.73334,2.7 -9.2,2.7 l -8.93334,0 q -6.866663,-8.2 -17.666663,-8.5333 5.4,-7.8 5.4,-17.0667 0,-1.9333 -0.333334,-4.4 4.4,1.5333 8.866667,1.5333 3.93333,0 7.93333,-1.4333 4,-1.4333 6.5,-2.8333 2.5,-1.4 2.9,-1.4 8.26667,0 8.26667,23.5333 z m -8.53333,-40.6 q 0,7.0667 -5,12.0667 -5,5 -12.06667,5 -7.066667,0 -12.066667,-5 -5,-5 -5,-12.0667 0,-7.0667 5,-12.0667 5,-5 12.066667,-5 7.06667,0 12.06667,5 5,5 5,12.0667 z"
     id="path124"
     inkscape:connector-curvature="0" />
</svg>
