<?xml version="1.0" encoding="UTF-8" standalone="no"?>
<svg
   xmlns:dc="http://purl.org/dc/elements/1.1/"
   xmlns:cc="http://creativecommons.org/ns#"
   xmlns:rdf="http://www.w3.org/1999/02/22-rdf-syntax-ns#"
   xmlns:svg="http://www.w3.org/2000/svg"
   xmlns="http://www.w3.org/2000/svg"
   xmlns:sodipodi="http://sodipodi.sourceforge.net/DTD/sodipodi-0.dtd"
   xmlns:inkscape="http://www.inkscape.org/namespaces/inkscape"
   width="128"
   height="162.9091"
   viewBox="0 0 128 162.9091"
   id="svg2"
   version="1.1"
   inkscape:version="0.91 r13725"
   sodipodi:docname="building-o.svg">
  <metadata
     id="metadata10">
    <rdf:RDF>
      <cc:Work
         rdf:about="">
        <dc:format>image/svg+xml</dc:format>
        <dc:type
           rdf:resource="http://purl.org/dc/dcmitype/StillImage" />
        <dc:title></dc:title>
      </cc:Work>
    </rdf:RDF>
  </metadata>
  <defs
     id="defs8" />
  <sodipodi:namedview
     pagecolor="#ffffff"
     bordercolor="#666666"
     borderopacity="1"
     objecttolerance="10"
     gridtolerance="10"
     guidetolerance="10"
     inkscape:pageopacity="0"
     inkscape:pageshadow="2"
     inkscape:window-width="1208"
     inkscape:window-height="748"
     id="namedview6"
     showgrid="false"
     fit-margin-top="0"
     fit-margin-left="0"
     fit-margin-right="0"
     fit-margin-bottom="0"
     inkscape:zoom="0.13169643"
     inkscape:cx="704"
     inkscape:cy="896"
     inkscape:window-x="20"
     inkscape:window-y="43"
     inkscape:window-maximized="0"
     inkscape:current-layer="svg2" />
  <path
     d="m 34.90909,119.2727 0,5.8182 q 0,1.1818 -0.86364,2.0455 Q 33.18182,128 32,128 l -5.81818,0 Q 25,128 24.13636,127.1364 q -0.86363,-0.8637 -0.86363,-2.0455 l 0,-5.8182 q 0,-1.1818 0.86363,-2.0454 0.86364,-0.8637 2.04546,-0.8637 l 5.81818,0 q 1.18182,0 2.04545,0.8637 0.86364,0.8636 0.86364,2.0454 z m 0,-23.2727 0,5.8182 q 0,1.1818 -0.86364,2.0454 -0.86363,0.8637 -2.04545,0.8637 l -5.81818,0 Q 25,104.7273 24.13636,103.8636 23.27273,103 23.27273,101.8182 l 0,-5.8182 q 0,-1.1818 0.86363,-2.0454 Q 25,93.0909 26.18182,93.0909 l 5.81818,0 q 1.18182,0 2.04545,0.8637 0.86364,0.8636 0.86364,2.0454 z m 23.27273,0 0,5.8182 q 0,1.1818 -0.86364,2.0454 -0.86363,0.8637 -2.04545,0.8637 l -5.81818,0 q -1.18182,0 -2.04546,-0.8637 Q 46.54545,103 46.54545,101.8182 l 0,-5.8182 q 0,-1.1818 0.86364,-2.0454 0.86364,-0.8637 2.04546,-0.8637 l 5.81818,0 q 1.18182,0 2.04545,0.8637 0.86364,0.8636 0.86364,2.0454 z m -23.27273,-23.2727 0,5.8182 q 0,1.1818 -0.86364,2.0454 Q 33.18182,81.4546 32,81.4546 l -5.81818,0 q -1.18182,0 -2.04546,-0.8637 -0.86363,-0.8636 -0.86363,-2.0454 l 0,-5.8182 q 0,-1.1818 0.86363,-2.0455 Q 25,69.8182 26.18182,69.8182 l 5.81818,0 q 1.18182,0 2.04545,0.8636 0.86364,0.8637 0.86364,2.0455 z m 69.81818,46.5454 0,5.8182 q 0,1.1818 -0.86363,2.0455 Q 103,128 101.81818,128 L 96,128 q -1.18182,0 -2.04545,-0.8636 -0.86364,-0.8637 -0.86364,-2.0455 l 0,-5.8182 q 0,-1.1818 0.86364,-2.0454 0.86363,-0.8637 2.04545,-0.8637 l 5.81818,0 q 1.18182,0 2.04546,0.8637 0.86363,0.8636 0.86363,2.0454 z M 81.45455,96 l 0,5.8182 q 0,1.1818 -0.86364,2.0454 -0.86364,0.8637 -2.04546,0.8637 l -5.81818,0 q -1.18182,0 -2.04545,-0.8637 Q 69.81818,103 69.81818,101.8182 l 0,-5.8182 q 0,-1.1818 0.86364,-2.0454 0.86363,-0.8637 2.04545,-0.8637 l 5.81818,0 q 1.18182,0 2.04546,0.8637 0.86364,0.8636 0.86364,2.0454 z m -23.27273,-23.2727 0,5.8182 q 0,1.1818 -0.86364,2.0454 -0.86363,0.8637 -2.04545,0.8637 l -5.81818,0 q -1.18182,0 -2.04546,-0.8637 -0.86364,-0.8636 -0.86364,-2.0454 l 0,-5.8182 q 0,-1.1818 0.86364,-2.0455 0.86364,-0.8636 2.04546,-0.8636 l 5.81818,0 q 1.18182,0 2.04545,0.8636 0.86364,0.8637 0.86364,2.0455 z m -23.27273,-23.2727 0,5.8181 q 0,1.1819 -0.86364,2.0455 Q 33.18182,58.1818 32,58.1818 l -5.81818,0 q -1.18182,0 -2.04546,-0.8636 -0.86363,-0.8636 -0.86363,-2.0455 l 0,-5.8181 q 0,-1.1819 0.86363,-2.0455 Q 25,46.5455 26.18182,46.5455 l 5.81818,0 q 1.18182,0 2.04545,0.8636 0.86364,0.8636 0.86364,2.0455 z M 104.72727,96 l 0,5.8182 q 0,1.1818 -0.86363,2.0454 -0.86364,0.8637 -2.04546,0.8637 l -5.81818,0 q -1.18182,0 -2.04545,-0.8637 Q 93.09091,103 93.09091,101.8182 l 0,-5.8182 q 0,-1.1818 0.86364,-2.0454 Q 94.81818,93.0909 96,93.0909 l 5.81818,0 q 1.18182,0 2.04546,0.8637 0.86363,0.8636 0.86363,2.0454 z m -23.27272,-23.2727 0,5.8182 q 0,1.1818 -0.86364,2.0454 -0.86364,0.8637 -2.04546,0.8637 l -5.81818,0 q -1.18182,0 -2.04545,-0.8637 -0.86364,-0.8636 -0.86364,-2.0454 l 0,-5.8182 q 0,-1.1818 0.86364,-2.0455 0.86363,-0.8636 2.04545,-0.8636 l 5.81818,0 q 1.18182,0 2.04546,0.8636 0.86364,0.8637 0.86364,2.0455 z m -23.27273,-23.2727 0,5.8181 q 0,1.1819 -0.86364,2.0455 -0.86363,0.8636 -2.04545,0.8636 l -5.81818,0 q -1.18182,0 -2.04546,-0.8636 -0.86364,-0.8636 -0.86364,-2.0455 l 0,-5.8181 q 0,-1.1819 0.86364,-2.0455 0.86364,-0.8636 2.04546,-0.8636 l 5.81818,0 q 1.18182,0 2.04545,0.8636 0.86364,0.8636 0.86364,2.0455 z m -23.27273,-23.2728 0,5.8182 q 0,1.1818 -0.86364,2.0455 Q 33.18182,34.9091 32,34.9091 l -5.81818,0 Q 25,34.9091 24.13636,34.0455 23.27273,33.1818 23.27273,32 l 0,-5.8182 q 0,-1.1818 0.86363,-2.0454 Q 25,23.2727 26.18182,23.2727 l 5.81818,0 q 1.18182,0 2.04545,0.8637 0.86364,0.8636 0.86364,2.0454 z m 69.81818,46.5455 0,5.8182 q 0,1.1818 -0.86363,2.0454 -0.86364,0.8637 -2.04546,0.8637 l -5.81818,0 q -1.18182,0 -2.04545,-0.8637 -0.86364,-0.8636 -0.86364,-2.0454 l 0,-5.8182 q 0,-1.1818 0.86364,-2.0455 Q 94.81818,69.8182 96,69.8182 l 5.81818,0 q 1.18182,0 2.04546,0.8636 0.86363,0.8637 0.86363,2.0455 z m -23.27272,-23.2727 0,5.8181 q 0,1.1819 -0.86364,2.0455 -0.86364,0.8636 -2.04546,0.8636 l -5.81818,0 q -1.18182,0 -2.04545,-0.8636 -0.86364,-0.8636 -0.86364,-2.0455 l 0,-5.8181 q 0,-1.1819 0.86364,-2.0455 0.86363,-0.8636 2.04545,-0.8636 l 5.81818,0 q 1.18182,0 2.04546,0.8636 0.86364,0.8636 0.86364,2.0455 z m -23.27273,-23.2728 0,5.8182 q 0,1.1818 -0.86364,2.0455 -0.86363,0.8636 -2.04545,0.8636 l -5.81818,0 q -1.18182,0 -2.04546,-0.8636 Q 46.54545,33.1818 46.54545,32 l 0,-5.8182 q 0,-1.1818 0.86364,-2.0454 0.86364,-0.8637 2.04546,-0.8637 l 5.81818,0 q 1.18182,0 2.04545,0.8637 0.86364,0.8636 0.86364,2.0454 z m 46.54545,23.2728 0,5.8181 q 0,1.1819 -0.86363,2.0455 -0.86364,0.8636 -2.04546,0.8636 l -5.81818,0 q -1.18182,0 -2.04545,-0.8636 -0.86364,-0.8636 -0.86364,-2.0455 l 0,-5.8181 q 0,-1.1819 0.86364,-2.0455 Q 94.81818,46.5455 96,46.5455 l 5.81818,0 q 1.18182,0 2.04546,0.8636 0.86363,0.8636 0.86363,2.0455 z m -23.27272,-23.2728 0,5.8182 q 0,1.1818 -0.86364,2.0455 -0.86364,0.8636 -2.04546,0.8636 l -5.81818,0 q -1.18182,0 -2.04545,-0.8636 Q 69.81818,33.1818 69.81818,32 l 0,-5.8182 q 0,-1.1818 0.86364,-2.0454 0.86363,-0.8637 2.04545,-0.8637 l 5.81818,0 q 1.18182,0 2.04546,0.8637 0.86364,0.8636 0.86364,2.0454 z m 23.27272,0 0,5.8182 q 0,1.1818 -0.86363,2.0455 -0.86364,0.8636 -2.04546,0.8636 l -5.81818,0 q -1.18182,0 -2.04545,-0.8636 Q 93.09091,33.1818 93.09091,32 l 0,-5.8182 q 0,-1.1818 0.86364,-2.0454 Q 94.81818,23.2727 96,23.2727 l 5.81818,0 q 1.18182,0 2.04546,0.8637 0.86363,0.8636 0.86363,2.0454 z m -23.27272,125.0909 34.90909,0 0,-139.6363 -104.72728,0 0,139.6363 34.90909,0 0,-20.3636 q 0,-1.1818 0.86364,-2.0455 Q 48.27273,128 49.45455,128 l 29.0909,0 q 1.18182,0 2.04546,0.8636 0.86364,0.8637 0.86364,2.0455 l 0,20.3636 z M 128,5.8182 l 0,151.2727 q 0,2.3637 -1.72727,4.0909 -1.72728,1.7273 -4.09091,1.7273 l -116.36364,0 q -2.36363,0 -4.09091,-1.7273 Q 0,159.4546 0,157.0909 L 0,5.8182 Q 0,3.4546 1.72727,1.7273 3.45455,0 5.81818,0 l 116.36364,0 q 2.36363,0 4.09091,1.7273 Q 128,3.4546 128,5.8182 Z"
     id="path4"
     inkscape:connector-curvature="0" />
</svg>
