<?xml version="1.0" encoding="UTF-8" standalone="no"?>
<svg
   xmlns:dc="http://purl.org/dc/elements/1.1/"
   xmlns:cc="http://creativecommons.org/ns#"
   xmlns:rdf="http://www.w3.org/1999/02/22-rdf-syntax-ns#"
   xmlns:svg="http://www.w3.org/2000/svg"
   xmlns="http://www.w3.org/2000/svg"
   xmlns:sodipodi="http://sodipodi.sourceforge.net/DTD/sodipodi-0.dtd"
   xmlns:inkscape="http://www.inkscape.org/namespaces/inkscape"
   width="128"
   height="108.3728"
   viewBox="0 0 128 108.3728"
   id="svg12"
   version="1.1"
   inkscape:version="0.91 r13725"
   sodipodi:docname="check-square-o.svg">
  <metadata
     id="metadata20">
    <rdf:RDF>
      <cc:Work
         rdf:about="">
        <dc:format>image/svg+xml</dc:format>
        <dc:type
           rdf:resource="http://purl.org/dc/dcmitype/StillImage" />
        <dc:title></dc:title>
      </cc:Work>
    </rdf:RDF>
  </metadata>
  <defs
     id="defs18" />
  <sodipodi:namedview
     pagecolor="#ffffff"
     bordercolor="#666666"
     borderopacity="1"
     objecttolerance="10"
     gridtolerance="10"
     guidetolerance="10"
     inkscape:pageopacity="0"
     inkscape:pageshadow="2"
     inkscape:window-width="1090"
     inkscape:window-height="701"
     id="namedview16"
     showgrid="false"
     fit-margin-top="0"
     fit-margin-left="0"
     fit-margin-right="0"
     fit-margin-bottom="0"
     inkscape:zoom="0.13169643"
     inkscape:cx="832"
     inkscape:cy="640"
     inkscape:window-x="40"
     inkscape:window-y="85"
     inkscape:window-maximized="0"
     inkscape:current-layer="svg12" />
  <path
     d="m 108.37282,61.7294 0,24.4762 q 0,9.1594 -6.50391,15.6633 -6.50391,6.5039 -15.66326,6.5039 l -64.038482,0 q -9.159351,0 -15.663259,-6.5039 Q 0,95.365 0,86.2056 L 0,22.1671 Q 0,13.0078 6.503909,6.5039 13.007817,0 22.167168,0 L 86.20565,0 q 4.84907,0 9.00541,1.9242 1.15454,0.5388 1.38545,1.7703 0.23091,1.3085 -0.69272,2.2321 l -3.7715,3.7715 q -0.76969,0.7697 -1.77029,0.7697 -0.23091,0 -0.69273,-0.1539 -1.77029,-0.4618 -3.46362,-0.4618 l -64.038482,0 q -5.079976,0 -8.697535,3.6175 -3.617558,3.6176 -3.617558,8.6975 l 0,64.0385 q 0,5.08 3.617558,8.6976 3.617559,3.6175 8.697535,3.6175 l 64.038482,0 q 5.07998,0 8.69754,-3.6175 3.61756,-3.6176 3.61756,-8.6976 l 0,-19.5502 q 0,-1.0006 0.69272,-1.6933 l 4.92604,-4.926 q 0.76969,-0.7697 1.77029,-0.7697 0.46182,0 0.92363,0.2309 1.53939,0.6157 1.53939,2.2321 z m 17.77992,-37.638 -62.65304,62.653 q -1.84726,1.8473 -4.38725,1.8473 -2.53999,0 -4.38725,-1.8473 L 21.628382,53.6476 q -1.847264,-1.8473 -1.847264,-4.3872 0,-2.54 1.847264,-4.3873 l 8.466627,-8.4666 q 1.847264,-1.8473 4.387252,-1.8473 2.539989,0 4.387249,1.8473 L 59.11245,56.6494 108.91161,6.8503 q 1.84726,-1.8473 4.38725,-1.8473 2.53999,0 4.38725,1.8473 l 8.46663,8.4666 Q 128,17.1641 128,19.7041 q 0,2.54 -1.84726,4.3873 z"
     id="path14"
     inkscape:connector-curvature="0" />
</svg>
