<?xml version="1.0" encoding="UTF-8" standalone="no"?>
<svg
   xmlns:dc="http://purl.org/dc/elements/1.1/"
   xmlns:cc="http://creativecommons.org/ns#"
   xmlns:rdf="http://www.w3.org/1999/02/22-rdf-syntax-ns#"
   xmlns:svg="http://www.w3.org/2000/svg"
   xmlns="http://www.w3.org/2000/svg"
   xmlns:sodipodi="http://sodipodi.sourceforge.net/DTD/sodipodi-0.dtd"
   xmlns:inkscape="http://www.inkscape.org/namespaces/inkscape"
   width="128"
   height="117.4"
   viewBox="0 0 128 117.4"
   id="svg22"
   version="1.1"
   inkscape:version="0.91 r13725"
   sodipodi:docname="cogs.svg">
  <metadata
     id="metadata30">
    <rdf:RDF>
      <cc:Work
         rdf:about="">
        <dc:format>image/svg+xml</dc:format>
        <dc:type
           rdf:resource="http://purl.org/dc/dcmitype/StillImage" />
        <dc:title></dc:title>
      </cc:Work>
    </rdf:RDF>
  </metadata>
  <defs
     id="defs28" />
  <sodipodi:namedview
     pagecolor="#ffffff"
     bordercolor="#666666"
     borderopacity="1"
     objecttolerance="10"
     gridtolerance="10"
     guidetolerance="10"
     inkscape:pageopacity="0"
     inkscape:pageshadow="2"
     inkscape:window-width="1078"
     inkscape:window-height="677"
     id="namedview26"
     showgrid="false"
     fit-margin-top="0"
     fit-margin-left="0"
     fit-margin-right="0"
     fit-margin-bottom="0"
     inkscape:zoom="0.13169643"
     inkscape:cx="960"
     inkscape:cy="881"
     inkscape:window-x="60"
     inkscape:window-y="127"
     inkscape:window-maximized="0"
     inkscape:current-layer="svg22" />
  <path
     d="m 59.733333,58.6667 q 0,-7.0667 -5,-12.0667 -5,-5 -12.066666,-5 Q 35.6,41.6 30.6,46.6 q -5,5 -5,12.0667 0,7.0666 5,12.0666 5,5 12.066667,5 7.066666,0 12.066666,-5 5,-5 5,-12.0666 z M 110.93333,92.8 q 0,-3.4667 -2.53333,-6 -2.53333,-2.5333 -6,-2.5333 -3.466667,0 -6,2.5333 -2.533333,2.5333 -2.533333,6 0,3.5333 2.5,6.0333 2.5,2.5 6.033333,2.5 3.53333,0 6.03333,-2.5 2.5,-2.5 2.5,-6.0333 z m 0,-68.2667 q 0,-3.4666 -2.53333,-6 Q 105.86667,16 102.4,16 q -3.466667,0 -6,2.5333 -2.533333,2.5334 -2.533333,6 0,3.5334 2.5,6.0334 2.5,2.5 6.033333,2.5 3.53333,0 6.03333,-2.5 2.5,-2.5 2.5,-6.0334 z M 85.333333,52.6 l 0,12.3333 q 0,0.6667 -0.466666,1.3 Q 84.4,66.8667 83.8,66.9333 l -10.333333,1.6 q -0.733334,2.3334 -2.133334,5.0667 2.266667,3.2 6,7.6667 Q 77.8,81.9333 77.8,82.6 q 0,0.8 -0.466667,1.2667 -1.533333,2 -5.5,5.9666 Q 67.866667,93.8 66.6,93.8 q -0.733333,0 -1.4,-0.4667 l -7.666667,-6 Q 55.066667,88.6 52.4,89.4 q -0.733333,7.2 -1.533333,10.3333 -0.466667,1.6 -2,1.6 l -12.4,0 q -0.733334,0 -1.333334,-0.5 -0.6,-0.5 -0.666666,-1.1666 l -1.533334,-10.2 q -2.266666,-0.6667 -5,-2.0667 l -7.866666,5.9333 Q 19.6,93.8 18.733333,93.8 18,93.8 17.333333,93.2667 7.733333,84.4 7.733333,82.6 7.733333,82 8.2,81.3333 8.866667,80.4 10.933333,77.8 13,75.2 14.066667,73.7333 12.533333,70.8 11.733333,68.2667 L 1.6,66.6667 Q 0.933333,66.5997 0.466667,66.0333 0,65.4667 0,64.7333 L 0,52.4 Q 0,51.7333 0.466667,51.1 0.933333,50.4667 1.533333,50.4 L 11.866667,48.8 Q 12.6,46.4667 14,43.7333 q -2.266667,-3.2 -6,-7.6666 -0.466667,-0.7334 -0.466667,-1.3334 0,-0.8 0.466667,-1.3333 1.466667,-2 5.466667,-5.9333 4,-3.9334 5.266666,-3.9334 0.733334,0 1.4,0.4667 L 27.8,30 q 2.266667,-1.2 5.133333,-2.1333 0.733334,-7.2 1.533334,-10.2667 0.466666,-1.6 2,-1.6 l 12.4,0 Q 49.6,16 50.2,16.5 50.8,17 50.866667,17.6667 L 52.4,27.8667 q 2.266667,0.6666 5,2.0666 L 65.266667,24 Q 65.8,23.5333 66.6,23.5333 q 0.733333,0 1.4,0.5334 9.6,8.8666 9.6,10.6666 0,0.6 -0.466667,1.2667 -0.8,1.0667 -2.8,3.6 -2,2.5333 -3,4 1.533334,3.2 2.266667,5.4667 L 83.733333,50.6 q 0.666667,0.1333 1.133334,0.7 0.466666,0.5667 0.466666,1.3 z M 128,88.1333 l 0,9.3334 q 0,1.0666 -9.93333,2.0666 -0.8,1.8 -2,3.4667 3.4,7.5333 3.4,9.2 0,0.2667 -0.26667,0.4667 -8.13333,4.7333 -8.26667,4.7333 -0.53333,0 -3.06666,-3.1333 -2.53334,-3.1334 -3.46667,-4.5334 -1.33333,0.1334 -2,0.1334 -0.66667,0 -2,-0.1334 -0.933333,1.4 -3.466667,4.5334 Q 94.4,117.4 93.866667,117.4 q -0.133334,0 -8.266667,-4.7333 -0.266667,-0.2 -0.266667,-0.4667 0,-1.6667 3.4,-9.2 -1.2,-1.6667 -2,-3.4667 Q 76.8,98.5333 76.8,97.4667 l 0,-9.3334 q 0,-1.0666 9.933333,-2.0666 0.866667,-1.9334 2,-3.4667 -3.4,-7.5333 -3.4,-9.2 0,-0.2667 0.266667,-0.4667 Q 85.866667,72.8 87.933333,71.6 90,70.4 91.866667,69.3333 q 1.866666,-1.0666 2,-1.0666 0.533333,0 3.066666,3.1 2.533334,3.1 3.466667,4.5 1.33333,-0.1334 2,-0.1334 0.66667,0 2,0.1334 3.4,-4.7334 6.13333,-7.4667 l 0.4,-0.1333 q 0.26667,0 8.26667,4.6666 0.26667,0.2 0.26667,0.4667 0,1.6667 -3.4,9.2 1.13333,1.5333 2,3.4667 9.93333,1 9.93333,2.0666 z m 0,-68.2666 0,9.3333 q 0,1.0667 -9.93333,2.0667 -0.8,1.8 -2,3.4666 3.4,7.5334 3.4,9.2 0,0.2667 -0.26667,0.4667 -8.13333,4.7333 -8.26667,4.7333 -0.53333,0 -3.06666,-3.1333 -2.53334,-3.1333 -3.46667,-4.5333 -1.33333,0.1333 -2,0.1333 -0.66667,0 -2,-0.1333 Q 99.466667,42.8667 96.933333,46 94.4,49.1333 93.866667,49.1333 93.733333,49.1333 85.6,44.4 q -0.266667,-0.2 -0.266667,-0.4667 0,-1.6666 3.4,-9.2 -1.2,-1.6666 -2,-3.4666 Q 76.8,30.2667 76.8,29.2 l 0,-9.3333 q 0,-1.0667 9.933333,-2.0667 0.866667,-1.9333 2,-3.4667 -3.4,-7.5333 -3.4,-9.2 0,-0.2666 0.266667,-0.4666 Q 85.866667,4.5333 87.933333,3.3333 90,2.1333 91.866667,1.0667 93.733333,0 93.866667,0 94.4,0 96.933333,3.1 99.466667,6.2 100.4,7.6 q 1.33333,-0.1333 2,-0.1333 0.66667,0 2,0.1333 3.4,-4.7333 6.13333,-7.4667 L 110.93333,0 Q 111.2,0 119.2,4.6667 q 0.26667,0.2 0.26667,0.4666 0,1.6667 -3.4,9.2 1.13333,1.5334 2,3.4667 Q 128,18.8 128,19.8667 Z"
     id="path24"
     inkscape:connector-curvature="0" />
</svg>
