<?xml version="1.0" encoding="UTF-8" standalone="no"?>
<svg
   xmlns:dc="http://purl.org/dc/elements/1.1/"
   xmlns:cc="http://creativecommons.org/ns#"
   xmlns:rdf="http://www.w3.org/1999/02/22-rdf-syntax-ns#"
   xmlns:svg="http://www.w3.org/2000/svg"
   xmlns="http://www.w3.org/2000/svg"
   xmlns:sodipodi="http://sodipodi.sourceforge.net/DTD/sodipodi-0.dtd"
   xmlns:inkscape="http://www.inkscape.org/namespaces/inkscape"
   width="32"
   height="29.866674"
   viewBox="0 0 32 29.866675"
   id="svg122"
   version="1.1"
   inkscape:version="0.91 r13725"
   sodipodi:docname="users_32.svg">
  <metadata
     id="metadata130">
    <rdf:RDF>
      <cc:Work
         rdf:about="">
        <dc:format>image/svg+xml</dc:format>
        <dc:type
           rdf:resource="http://purl.org/dc/dcmitype/StillImage" />
        <dc:title></dc:title>
      </cc:Work>
    </rdf:RDF>
  </metadata>
  <defs
     id="defs128" />
  <sodipodi:namedview
     pagecolor="#ffffff"
     bordercolor="#666666"
     borderopacity="1"
     objecttolerance="10"
     gridtolerance="10"
     guidetolerance="10"
     inkscape:pageopacity="0"
     inkscape:pageshadow="2"
     inkscape:window-width="1044"
     inkscape:window-height="643"
     id="namedview126"
     showgrid="false"
     fit-margin-top="0"
     fit-margin-left="0"
     fit-margin-right="0"
     fit-margin-bottom="0"
     inkscape:zoom="0.13169643"
     inkscape:cx="960"
     inkscape:cy="896"
     inkscape:window-x="290"
     inkscape:window-y="47"
     inkscape:window-maximized="0"
     inkscape:current-layer="svg122" />
  <path
     d="m 9.8833333,14.933355 q -2.7000001,0.0833 -4.4166666,2.13332 l -2.2333335,0 q -1.3666665,0 -2.29999995,-0.675 Q 0,15.716675 0,14.416675 0,8.53335 2.0666668,8.53335 q 0.1,0 0.725,0.35 0.625,0.35 1.6249999,0.708325 Q 5.4166667,9.95 6.4,9.95 q 1.1166668,0 2.2166668,-0.383325 -0.083334,0.616675 -0.083334,1.1 0,2.31668 1.35,4.26668 z m 17.8499987,10.61665 q 0,2 -1.216665,3.15835 -1.216667,1.15832 -3.233334,1.15832 l -14.5666662,0 q -2.0166668,0 -3.2333336,-1.15832 -1.2166665,-1.15835 -1.2166665,-3.15835 0,-0.88333 0.058333,-1.725 0.058333,-0.84165 0.2333332,-1.81665 0.175,-0.975 0.4416668,-1.80835 0.2666667,-0.83333 0.7166667,-1.625 0.45,-0.79165 1.0333333,-1.35 0.5833332,-0.55833 1.425,-0.89165 0.8416668,-0.33335 1.8583333,-0.33335 0.166667,0 0.716667,0.35835 0.55,0.35832 1.216667,0.8 0.666666,0.44165 1.783333,0.8 1.116667,0.35832 2.25,0.35832 1.133333,0 2.25,-0.35832 1.116667,-0.35835 1.783333,-0.8 0.666667,-0.44168 1.216667,-0.8 0.55,-0.35835 0.716667,-0.35835 1.016666,0 1.858333,0.33335 0.841667,0.33332 1.425,0.89165 0.583332,0.55835 1.033332,1.35 0.45,0.79167 0.716668,1.625 0.266667,0.83335 0.441667,1.80835 0.175001,0.975 0.233333,1.81665 0.05833,0.84167 0.05833,1.725 z M 10.666667,4.266675 q 0,1.766675 -1.2500003,3.016675 -1.25,1.25 -3.0166667,1.25 -1.7666668,0 -3.0166668,-1.25 -1.25,-1.25 -1.25,-3.016675 0,-1.766675 1.25,-3.016675 Q 4.6333332,0 6.4,0 8.1666667,0 9.4166667,1.25 10.666667,2.5 10.666667,4.266675 Z m 11.733333,6.4 q 0,2.65 -1.875,4.525 -1.875,1.875 -4.525,1.875 -2.65,0 -4.525,-1.875 -1.875,-1.875 -1.875,-4.525 0,-2.65 1.875,-4.525 1.875,-1.875 4.525,-1.875 2.65,0 4.525,1.875 1.875,1.875 1.875,4.525 z m 9.6,3.75 q 0,1.3 -0.933333,1.975 -0.933334,0.675 -2.3,0.675 l -2.233335,0 q -1.716665,-2.05 -4.416665,-2.13332 1.35,-1.95 1.35,-4.26668 0,-0.483325 -0.08333,-1.1 1.1,0.383325 2.216667,0.383325 0.983332,0 1.983332,-0.358325 1,-0.358325 1.625,-0.708325 0.625,-0.35 0.725001,-0.35 Q 32,8.53335 32,14.416675 Z m -2.133333,-10.15 q 0,1.766675 -1.25,3.016675 -1.25,1.25 -3.016667,1.25 -1.766667,0 -3.016667,-1.25 -1.25,-1.25 -1.25,-3.016675 0,-1.766675 1.25,-3.016675 Q 23.833333,0 25.6,0 q 1.766667,0 3.016667,1.25 1.25,1.25 1.25,3.016675 z"
     id="path124"
     inkscape:connector-curvature="0" />
</svg>
