<?xml version="1.0" encoding="UTF-8" standalone="no"?>
<svg
   xmlns:dc="http://purl.org/dc/elements/1.1/"
   xmlns:cc="http://creativecommons.org/ns#"
   xmlns:rdf="http://www.w3.org/1999/02/22-rdf-syntax-ns#"
   xmlns:svg="http://www.w3.org/2000/svg"
   xmlns="http://www.w3.org/2000/svg"
   xmlns:sodipodi="http://sodipodi.sourceforge.net/DTD/sodipodi-0.dtd"
   xmlns:inkscape="http://www.inkscape.org/namespaces/inkscape"
   width="128"
   height="137.84621"
   viewBox="0 0 128 137.84621"
   id="svg2"
   version="1.1"
   inkscape:version="0.91 r13725"
   sodipodi:docname="bell-o.svg">
  <metadata
     id="metadata10">
    <rdf:RDF>
      <cc:Work
         rdf:about="">
        <dc:format>image/svg+xml</dc:format>
        <dc:type
           rdf:resource="http://purl.org/dc/dcmitype/StillImage" />
        <dc:title></dc:title>
      </cc:Work>
    </rdf:RDF>
  </metadata>
  <defs
     id="defs8" />
  <sodipodi:namedview
     pagecolor="#ffffff"
     bordercolor="#666666"
     borderopacity="1"
     objecttolerance="10"
     gridtolerance="10"
     guidetolerance="10"
     inkscape:pageopacity="0"
     inkscape:pageshadow="2"
     inkscape:window-width="1059"
     inkscape:window-height="704"
     id="namedview6"
     showgrid="false"
     fit-margin-top="0"
     fit-margin-left="0"
     fit-margin-right="0"
     fit-margin-bottom="0"
     inkscape:zoom="0.13169643"
     inkscape:cx="832"
     inkscape:cy="896"
     inkscape:window-x="20"
     inkscape:window-y="43"
     inkscape:window-maximized="0"
     inkscape:current-layer="svg2" />
  <path
     d="m 65.23077,130.4616 q 0,-1.2308 -1.23077,-1.2308 -4.53846,0 -7.80769,-3.2692 -3.26923,-3.2692 -3.26923,-7.8077 0,-1.2308 -1.23077,-1.2308 -1.23077,0 -1.23077,1.2308 0,5.6154 3.96154,9.5769 3.96154,3.9616 9.57692,3.9616 1.23077,0 1.23077,-1.2308 z M 14,108.3077 l 100,0 q -20.46154,-23.0769 -20.46154,-64 0,-3.923 -1.84615,-8.0769 Q 89.84615,32.077 86.38462,28.3077 82.92308,24.5385 77.03846,22.1154 71.15385,19.6924 64,19.6924 q -7.15385,0 -13.03846,2.423 -5.88462,2.4231 -9.34616,6.1923 -3.46153,3.7693 -5.30769,7.9231 -1.846152,4.1539 -1.846152,8.0769 0,40.9231 -20.461538,64 z m 114,0 q 0,4 -2.92308,6.9231 -2.92307,2.9231 -6.92307,2.9231 l -34.46154,0 q 0,8.1538 -5.76923,13.9231 -5.76923,5.7692 -13.92308,5.7692 -8.15385,0 -13.92308,-5.7692 -5.76923,-5.7693 -5.76923,-13.9231 l -34.461536,0 q -4,0 -6.923077,-2.9231 Q 0,112.3077 0,108.3077 3.846154,105.077 7,101.5385 10.153846,98 13.538462,92.3462 q 3.384615,-5.6538 5.730769,-12.1923 2.346154,-6.5385 3.846154,-15.8462 1.5,-9.3077 1.5,-20 0,-11.6923 9,-21.7307 8.999995,-10.0385 23.615385,-12.1923 -0.61539,-1.4616 -0.61539,-3 0,-3.077 2.15385,-5.2308 Q 60.92308,0 64,0 q 3.07692,0 5.23077,2.1539 2.15385,2.1538 2.15385,5.2308 0,1.5384 -0.61539,3 14.61539,2.1538 23.61539,12.1923 9,10.0384 9,21.7307 0,10.6923 1.5,20 1.5,9.3077 3.84615,15.8462 2.34615,6.5385 5.73077,12.1923 3.38461,5.6538 6.53846,9.1923 3.15385,3.5385 7,6.7692 z"
     id="path4"
     inkscape:connector-curvature="0" />
</svg>
