<?xml version="1.0" encoding="UTF-8" standalone="no"?>
<svg
   xmlns:dc="http://purl.org/dc/elements/1.1/"
   xmlns:cc="http://creativecommons.org/ns#"
   xmlns:rdf="http://www.w3.org/1999/02/22-rdf-syntax-ns#"
   xmlns:svg="http://www.w3.org/2000/svg"
   xmlns="http://www.w3.org/2000/svg"
   xmlns:sodipodi="http://sodipodi.sourceforge.net/DTD/sodipodi-0.dtd"
   xmlns:inkscape="http://www.inkscape.org/namespaces/inkscape"
   width="128"
   height="128"
   viewBox="0 0 128 128"
   id="svg42"
   version="1.1"
   inkscape:version="0.91 r13725"
   sodipodi:docname="compass.svg">
  <metadata
     id="metadata50">
    <rdf:RDF>
      <cc:Work
         rdf:about="">
        <dc:format>image/svg+xml</dc:format>
        <dc:type
           rdf:resource="http://purl.org/dc/dcmitype/StillImage" />
        <dc:title></dc:title>
      </cc:Work>
    </rdf:RDF>
  </metadata>
  <defs
     id="defs48" />
  <sodipodi:namedview
     pagecolor="#ffffff"
     bordercolor="#666666"
     borderopacity="1"
     objecttolerance="10"
     gridtolerance="10"
     guidetolerance="10"
     inkscape:pageopacity="0"
     inkscape:pageshadow="2"
     inkscape:window-width="1197"
     inkscape:window-height="651"
     id="namedview46"
     showgrid="false"
     fit-margin-top="0"
     fit-margin-left="0"
     fit-margin-right="0"
     fit-margin-bottom="0"
     inkscape:zoom="0.13169643"
     inkscape:cx="768"
     inkscape:cy="768"
     inkscape:window-x="100"
     inkscape:window-y="211"
     inkscape:window-maximized="0"
     inkscape:current-layer="svg42" />
  <path
     d="M 53.33333,80 74.66667,69.3333 53.33333,58.6667 l 0,21.3333 z m 32,-49.25 0,45.1667 -42.66666,21.3333 0,-45.1667 z m 24,33.25 q 0,-12.3333 -6.08333,-22.75 Q 97.16667,30.8333 86.75,24.75 76.33333,18.6667 64,18.6667 q -12.33333,0 -22.75,6.0833 -10.41667,6.0833 -16.5,16.5 -6.08333,10.4167 -6.08333,22.75 0,12.3333 6.08333,22.75 6.08333,10.4167 16.5,16.5 10.41667,6.0833 22.75,6.0833 12.33333,0 22.75,-6.0833 10.41667,-6.0833 16.5,-16.5 6.08333,-10.4167 6.08333,-22.75 z M 128,64 q 0,17.4167 -8.58333,32.125 Q 110.83333,110.8333 96.125,119.4167 81.41667,128 64,128 46.58333,128 31.875,119.4167 17.16667,110.8333 8.58333,96.125 0,81.4167 0,64 0,46.5833 8.58333,31.875 17.16667,17.1667 31.875,8.5833 46.58333,0 64,0 81.41667,0 96.125,8.5833 110.83333,17.1667 119.41667,31.875 128,46.5833 128,64 Z"
     id="path44"
     inkscape:connector-curvature="0" />
</svg>
