<?xml version="1.0" encoding="UTF-8" standalone="no"?>
<svg
   xmlns:dc="http://purl.org/dc/elements/1.1/"
   xmlns:cc="http://creativecommons.org/ns#"
   xmlns:rdf="http://www.w3.org/1999/02/22-rdf-syntax-ns#"
   xmlns:svg="http://www.w3.org/2000/svg"
   xmlns="http://www.w3.org/2000/svg"
   xmlns:sodipodi="http://sodipodi.sourceforge.net/DTD/sodipodi-0.dtd"
   xmlns:inkscape="http://www.inkscape.org/namespaces/inkscape"
   width="127.99997"
   height="149.3333"
   viewBox="0 0 127.99997 149.3333"
   id="svg62"
   version="1.1"
   inkscape:version="0.91 r13725"
   sodipodi:docname="language.svg">
  <metadata
     id="metadata70">
    <rdf:RDF>
      <cc:Work
         rdf:about="">
        <dc:format>image/svg+xml</dc:format>
        <dc:type
           rdf:resource="http://purl.org/dc/dcmitype/StillImage" />
        <dc:title></dc:title>
      </cc:Work>
    </rdf:RDF>
  </metadata>
  <defs
     id="defs68" />
  <sodipodi:namedview
     pagecolor="#ffffff"
     bordercolor="#666666"
     borderopacity="1"
     objecttolerance="10"
     gridtolerance="10"
     guidetolerance="10"
     inkscape:pageopacity="0"
     inkscape:pageshadow="2"
     inkscape:window-width="1196"
     inkscape:window-height="776"
     id="namedview66"
     showgrid="false"
     fit-margin-top="0"
     fit-margin-left="0"
     fit-margin-right="0"
     fit-margin-bottom="0"
     inkscape:zoom="0.13169643"
     inkscape:cx="767.99997"
     inkscape:cy="896"
     inkscape:window-x="246"
     inkscape:window-y="61"
     inkscape:window-maximized="0"
     inkscape:current-layer="svg62" />
  <path
     d="m 54.49997,89.8333 q -0.0833,0.25 -1.04167,-0.042 -0.95833,-0.2916 -2.625,-0.9583 l -1.66666,-0.75 q -3.66667,-1.6667 -7.25,-4.0833 -0.58334,-0.4167 -3.41667,-2.625 -2.83333,-2.2084 -3.16667,-2.375 -5.58333,8.5833 -11.16666,15.0833 -6.75,7.9167 -8.75,9.1667 -0.33334,0.1666 -1.625,0.3333 -1.29167,0.1667 -1.54167,0 0.5,-0.3333 6.83333,-7.6667 1.75,-2 7.125,-9.5833 5.375,-7.5833 6.54167,-9.8333 1.41667,-2.5 4.25,-8.2084 2.83333,-5.7083 3,-6.4583 -0.66667,-0.083 -9.16667,2.75 -0.66666,0.1667 -2.29166,0.625 -1.625,0.4583 -2.875,0.7917 -1.25,0.3333 -1.41667,0.4166 -0.16667,0.1667 -0.16667,0.875 0,0.7084 -0.0833,0.7917 -0.41667,0.8333 -2.58333,1.25 -1.91667,0.5833 -3.91667,0 -1.5,-0.3333 -2.33333,-1.75 -0.33334,-0.5 -0.41667,-1.9167 0.5,-0.1666 2.04167,-0.4166 1.54166,-0.25 2.45833,-0.5 4.83333,-1.3334 8.75,-2.6667 8.33333,-2.9167 8.5,-2.9167 0.83333,-0.1666 3.58333,-1.625 2.75,-1.4583 3.66667,-1.7916 0.75,-0.25 1.79167,-0.6667 1.04166,-0.4167 1.20833,-0.4583 0.16667,-0.042 0.5,0.042 0.16667,1 -0.0833,2.75 0,0.1667 -1.04167,2.25 -1.04167,2.0834 -2.20833,4.4584 -1.16667,2.375 -1.41667,2.7916 -2.08333,4.1667 -6.41667,10.9167 l 5.33334,2.3333 q 1,0.5 6.20833,2.6667 5.20833,2.1667 5.625,2.3333 0.33333,0.083 0.875,2.125 0.54167,2.0417 0.375,2.5417 z m -17.08333,-40.5 q 0.25,1.25 -0.33334,2.3333 -1,1.9167 -4.16666,3.1667 -2.5,1 -5,1 -2.16667,-0.25 -4.08334,-2.1667 -1.16666,-1.25 -1.5,-3.4166 L 22.4166,50 q 0.25,0.25 1.625,0.4166 1.375,0.1667 2.20833,0 0.83333,-0.1666 4.83333,-1.3333 3,-1 4.58334,-1.1667 1.41666,0 1.75,1.4167 z M 95.5833,60.0833 100.8333,79 89.24997,75.5 Z M 3.24997,126.75 61.0833,107.4166 l 0,-86 -57.83333,19.4167 0,85.9167 z m 103.41667,-26.4167 8.5,2.5833 -15.08334,-54.75 -8.33333,-2.5833 -18,44.6667 8.5,2.5833 3.75,-9.1667 17.58333,5.4167 z m -41.91667,-80.1667 47.75,15.3334 0,-31.6667 z m 25.91667,110.25 13.16666,1.0834 -4.5,13.3333 -3.33333,-5.5 q -10.83333,6.9167 -23,9 -4.83333,1 -7.58333,1 l -7,0 q -6.58334,0 -16.625,-3.25 -10.04167,-3.25 -15.29167,-7.0833 -0.66667,-0.5834 -0.66667,-1.3334 0,-0.6666 0.41667,-1.125 0.41667,-0.4583 1.08333,-0.4583 0.33334,0 1.5,0.625 1.16667,0.625 2.54167,1.375 1.375,0.75 1.70833,0.9167 6.08334,3.0833 13.29167,5.125 7.20833,2.0416 13.125,2.0416 7.91667,0 13.91667,-1.2083 6,-1.2083 13.08333,-4.2083 1.25,-0.5834 2.54167,-1.2917 1.29166,-0.7083 2.83333,-1.5833 1.54167,-0.875 2.375,-1.375 z M 127.99997,40.5 l 0,89.9166 -64.5,-20.5 q -1.16667,0.5 -31.25,10.625 -30.08333,10.125 -30.66667,10.125 -1.08333,0 -1.5,-1.0833 0,-0.083 -0.0833,-0.25 L 0,39.5 Q 0.25,38.75 0.33333,38.6666 0.75,38.1666 2,37.75 10.83333,34.8333 14.41667,33.5833 l 0,-32 46.5,16.5 q 0.16666,0 13.375,-4.5833 Q 87.5,8.9166 100.625,4.4583 113.75,0 114.08333,0 115.75,0 115.75,1.75 l 0,34.8333 z"
     id="path64"
     inkscape:connector-curvature="0" />
</svg>
