<?xml version="1.0" encoding="UTF-8" standalone="no"?>
<svg
   xmlns:dc="http://purl.org/dc/elements/1.1/"
   xmlns:cc="http://creativecommons.org/ns#"
   xmlns:rdf="http://www.w3.org/1999/02/22-rdf-syntax-ns#"
   xmlns:svg="http://www.w3.org/2000/svg"
   xmlns="http://www.w3.org/2000/svg"
   xmlns:xlink="http://www.w3.org/1999/xlink"
   xmlns:sodipodi="http://sodipodi.sourceforge.net/DTD/sodipodi-0.dtd"
   xmlns:inkscape="http://www.inkscape.org/namespaces/inkscape"
   width="555"
   height="555"
   id="svg2"
   version="1.1"
   inkscape:version="0.48.3.1 r9886"
   sodipodi:docname="Qubodup-GoetheFarbkreis_en.svg">
  <defs
     id="defs27">
    <path
       style="fill:none;stroke:#1f1f1f;stroke-miterlimit:4"
       inkscape:connector-curvature="0"
       id="imagebot_11-6"
       d="m 409.5,277.4989 c 0,72.902 -59.098,132 -132,132 -72.902,0 -132,-59.098 -132,-132 0,-72.901 59.098,-132 132,-132 72.902,0 132,59.099 132,132 z"
       stroke-miterlimit="4"
       label="Layer 1" />
    <path
       style="fill:none;stroke:#1f1f1f;stroke-miterlimit:4"
       inkscape:connector-curvature="0"
       id="imagebot_11-2"
       d="m 409.5,277.4989 c 0,72.902 -59.098,132 -132,132 -72.902,0 -132,-59.098 -132,-132 0,-72.901 59.098,-132 132,-132 72.902,0 132,59.099 132,132 z"
       stroke-miterlimit="4"
       label="Layer 1" />
    <path
       style="fill:none;stroke:#1f1f1f;stroke-miterlimit:4"
       inkscape:connector-curvature="0"
       id="imagebot_11-2-6"
       d="m 409.5,277.4989 c 0,72.902 -59.098,132 -132,132 -72.902,0 -132,-59.098 -132,-132 0,-72.901 59.098,-132 132,-132 72.902,0 132,59.099 132,132 z"
       stroke-miterlimit="4"
       label="Layer 1" />
    <path
       style="fill:none;stroke:#1f1f1f;stroke-miterlimit:4"
       inkscape:connector-curvature="0"
       id="imagebot_11-2-6-1"
       d="m 409.5,277.4989 c 0,72.902 -59.098,132 -132,132 -72.902,0 -132,-59.098 -132,-132 0,-72.901 59.098,-132 132,-132 72.902,0 132,59.099 132,132 z"
       stroke-miterlimit="4"
       label="Layer 1" />
    <path
       style="fill:none;stroke:#1f1f1f;stroke-miterlimit:4"
       inkscape:connector-curvature="0"
       id="imagebot_11-2-6-1-4"
       d="m 409.5,277.4989 c 0,72.902 -59.098,132 -132,132 -72.902,0 -132,-59.098 -132,-132 0,-72.901 59.098,-132 132,-132 72.902,0 132,59.099 132,132 z"
       stroke-miterlimit="4"
       label="Layer 1" />
  </defs>
  <sodipodi:namedview
     pagecolor="#ffffff"
     bordercolor="#666666"
     borderopacity="1"
     objecttolerance="10"
     gridtolerance="10"
     guidetolerance="10"
     inkscape:pageopacity="0"
     inkscape:pageshadow="2"
     inkscape:window-width="1053"
     inkscape:window-height="778"
     id="namedview25"
     showgrid="false"
     inkscape:zoom="0.60135928"
     inkscape:cx="402.52752"
     inkscape:cy="277.5"
     inkscape:window-x="172"
     inkscape:window-y="55"
     inkscape:window-maximized="0"
     inkscape:current-layer="svg2" />
  <metadata
     id="imagebot_20">image/svg+xml<rdf:RDF>
  <cc:Work
     rdf:about="">
    <dc:format>image/svg+xml</dc:format>
    <dc:type
       rdf:resource="http://purl.org/dc/dcmitype/StillImage" />
    <dc:title></dc:title>
  </cc:Work>
</rdf:RDF>
</metadata>
  <path
     style="fill:#ffcb08"
     inkscape:connector-curvature="0"
     id="imagebot_19"
     d="m 554.09949,276.83343 -0.26757,-0.0259 -144.73838,-0.007 c 0.10879,45.57471 -23.42133,89.956 -65.59354,114.51368 L 416,516.88812 c 88.6426,-51.3872 138.1552,-144.42154 138.09946,-240.0547 z"
     label="Layer 1" />
  <path
     style="fill:#fa470b"
     inkscape:connector-curvature="0"
     d="m 415.656,37.3739 -0.156,0.219 -72.375,125.344 c 39.523,22.693 66.194,65.261 66.375,114.062 l 145,0 C 554.319,174.5389 498.505,85.1429 415.656,37.3739 z"
     id="imagebot_18"
     label="Layer 1" />
  <path
     style="fill:#16a6ea"
     inkscape:connector-curvature="0"
     d="m 139.344,516.6239 0.156,-0.219 72.375,-125.343 c -39.523,-22.693 -66.193,-65.262 -66.375,-114.063 l -145,0 c 0.1813,102.461 55.995,191.857 138.844,239.625 l 0,0 z"
     id="imagebot_17"
     label="Layer 1" />
  <path
     style="fill:#d20f21"
     inkscape:connector-curvature="0"
     id="imagebot_16"
     d="m 343.875,163.40509 72.09375,-124.875 -0.90625,0.15625 -0.34375,-1.875 C 374.26575,13.69721 327.42733,0.49884 277.5,0.49884 c -50.24692,0 -97.36795,13.38896 -138,36.78125 l 0,1.25 71.96875,124.65625 c 19.42534,-11.24567 41.97005,-17.6875 66.03125,-17.6875 24.19837,0 46.8748,6.53999 66.375,17.90625 z"
     label="Layer 1" />
  <path
     style="fill:#0e416f"
     inkscape:connector-curvature="0"
     id="imagebot_15"
     d="m 0.90055,277.16473 0.26757,0.0259 144.73837,0.007 C 145.7977,231.62289 169.32779,187.24164 211.5,162.68396 L 139,37.11004 C 50.35741,88.49725 0.84482,181.53158 0.90055,277.16473 z"
     label="Layer 1" />
  <path
     style="fill:#038c26"
     inkscape:connector-curvature="0"
     d="m 211.125,391.59283 -72.09375,124.875 0.90625,-0.15625 0.34375,1.875 c 40.453,23.11413 87.29142,36.3125 137.21875,36.3125 50.24692,0 97.36795,-13.38896 138,-36.78125 l 0,-1.25 -71.96875,-124.65625 c -19.42534,11.24567 -41.97005,17.6875 -66.03125,17.6875 -24.19837,0 -46.8748,-6.53999 -66.375,-17.90625 z"
     id="imagebot_14"
     label="Layer 1" />
  <path
     style="fill:none;stroke:#1f1f1f;stroke-miterlimit:4"
     inkscape:connector-curvature="0"
     id="imagebot_13"
     d="m 554.5,277.4989 c 0,152.983 -124.017,277 -277,277 -152.983,0 -277,-124.017 -277,-277 0,-152.983 124.017,-277 277,-277 152.983,0 277,124.017 277,277 z"
     stroke-miterlimit="4"
     label="Layer 1" />
  <path
     style="fill:none;stroke:#1f1f1f;stroke-miterlimit:4"
     inkscape:connector-curvature="0"
     d="m 480.5,277.4989 c 0,112.114 -90.886,203 -203,203 -112.114,0 -203,-90.886 -203,-203 0,-112.114 90.886,-203 203,-203 112.114,0 203,90.886 203,203 z"
     id="imagebot_12"
     stroke-miterlimit="4"
     label="Layer 1" />
  <path
     style="fill:none;stroke:#1f1f1f;stroke-miterlimit:4"
     inkscape:connector-curvature="0"
     id="imagebot_11"
     d="m 409.5,277.4989 c 0,72.902 -59.098,132 -132,132 -72.902,0 -132,-59.098 -132,-132 0,-72.901 59.098,-132 132,-132 72.902,0 132,59.099 132,132 z"
     stroke-miterlimit="4"
     label="Layer 1" />
  <path
     style="fill:none;stroke:#1f1f1f;stroke-linejoin:round;stroke-miterlimit:4"
     inkscape:connector-curvature="0"
     d="m 277.26138,0.5672 0,144.93187"
     id="imagebot_10"
     stroke-miterlimit="4"
     label="Layer 1" />
  <path
     style="fill:none;stroke:#1f1f1f;stroke-linejoin:round;stroke-miterlimit:4"
     inkscape:connector-curvature="0"
     id="imagebot_9"
     d="m 277.26138,408.5672 0,144.93187"
     stroke-miterlimit="4"
     label="Layer 1" />
  <path
     style="fill:none;stroke:#1f1f1f;stroke-linejoin:round;stroke-miterlimit:4"
     inkscape:connector-curvature="0"
     id="imagebot_8"
     d="m 553.72729,277.03314 -144.93186,0"
     stroke-miterlimit="4"
     label="Layer 1" />
  <path
     style="fill:none;stroke:#1f1f1f;stroke-linejoin:round;stroke-miterlimit:4"
     inkscape:connector-curvature="0"
     d="m 145.72733,277.03314 -144.93187,0"
     id="imagebot_7"
     stroke-miterlimit="4"
     label="Layer 1" />
  <path
     style="fill:none;stroke:#1f1f1f;stroke-linejoin:round;stroke-miterlimit:4"
     inkscape:connector-curvature="0"
     id="imagebot_6"
     d="m 139.02843,37.60663 72.46592,125.51468"
     stroke-miterlimit="4"
     label="Layer 1" />
  <path
     style="fill:none;stroke:#1f1f1f;stroke-linejoin:round;stroke-miterlimit:4"
     inkscape:connector-curvature="0"
     d="m 343.02841,390.94501 72.46594,125.51467"
     id="imagebot_5"
     stroke-miterlimit="4"
     label="Layer 1" />
  <path
     style="fill:none;stroke:#1f1f1f;stroke-linejoin:round;stroke-miterlimit:4"
     inkscape:connector-curvature="0"
     d="M 415.49435,37.60663 343.02844,163.12131"
     id="imagebot_4"
     stroke-miterlimit="4"
     label="Layer 1" />
  <path
     style="fill:none;stroke:#1f1f1f;stroke-linejoin:round;stroke-miterlimit:4"
     inkscape:connector-curvature="0"
     id="imagebot_3"
     d="M 211.49435,390.94501 139.02843,516.45965"
     stroke-miterlimit="4"
     label="Layer 1" />
  <text
     xml:space="preserve"
     style="font-size:44px;font-style:normal;font-weight:normal;line-height:125%;letter-spacing:0px;word-spacing:0px;fill:#000000;fill-opacity:1;stroke:none;font-family:Sans"
     id="text3004"
     sodipodi:linespacing="125%"
     transform="matrix(0.95105651,0.309017,-0.309017,0.95105651,116.93582,-62.219558)"><textPath
       xlink:href="#imagebot_12"
       id="textPath3104">intellect</textPath></text>
  <text
     xml:space="preserve"
     style="font-size:44px;font-style:normal;font-weight:normal;line-height:125%;letter-spacing:0px;word-spacing:0px;fill:#000000;fill-opacity:1;stroke:none;font-family:Sans;-inkscape-font-specification:Sans"
     id="text3008"
     sodipodi:linespacing="125%"
     transform="matrix(-0.13917309,0.99026806,-0.99026806,-0.13917309,573.42999,54.752148)"><textPath
       xlink:href="#imagebot_12"
       id="textPath3111">sensuality</textPath></text>
  <text
     xml:space="preserve"
     style="font-size:44px;font-style:normal;font-weight:normal;line-height:125%;letter-spacing:0px;word-spacing:0px;fill:#000000;fill-opacity:1;stroke:none;font-family:Sans"
     id="text3012"
     sodipodi:linespacing="125%"
     transform="matrix(-0.97814759,-0.20791171,0.20791171,-0.97814759,475.91875,593.28471)"><textPath
       xlink:href="#imagebot_12"
       id="textPath3115">imagination</textPath></text>
  <text
     xml:space="preserve"
     style="font-size:44px;font-style:normal;font-weight:normal;line-height:125%;letter-spacing:0px;word-spacing:0px;fill:#000000;fill-opacity:1;stroke:none;font-family:Sans"
     id="text3016"
     sodipodi:linespacing="125%"
     transform="matrix(0.34202013,-0.93969263,0.93969263,0.34202013,-69.068623,425.07805)"><textPath
       xlink:href="#imagebot_12"
       id="textPath3101">reason</textPath></text>
  <text
     xml:space="preserve"
     style="font-size:24px;font-style:normal;font-weight:normal;line-height:125%;letter-spacing:0px;word-spacing:0px;fill:#000000;fill-opacity:1;stroke:none;font-family:Sans"
     id="text3036"
     sodipodi:linespacing="125%"
     transform="matrix(0.7193398,-0.69465836,0.69465836,0.7193398,-97.125552,263.00619)"><textPath
       xlink:href="#imagebot_11"
       id="textPath3118">noble</textPath></text>
  <text
     xml:space="preserve"
     style="font-size:36px;font-style:normal;font-weight:normal;line-height:125%;letter-spacing:0px;word-spacing:0px;fill:#000000;fill-opacity:1;stroke:none;font-family:Sans"
     id="text3036-9"
     sodipodi:linespacing="125%"
     transform="matrix(0.91354544,0.40673665,-0.40673665,0.91354544,163.42476,-86.152462)"><textPath
       xlink:href="#imagebot_11-6"
       id="textPath3118-6"
       style="font-size:24px">good</textPath></text>
  <text
     xml:space="preserve"
     style="font-size:36px;font-style:normal;font-weight:normal;line-height:125%;letter-spacing:0px;word-spacing:0px;fill:#000000;fill-opacity:1;stroke:none;font-family:Sans"
     id="text3036-5"
     sodipodi:linespacing="125%"
     transform="matrix(0.30901698,0.95105652,-0.95105652,0.30901698,455.32938,-45.066808)"><textPath
       xlink:href="#imagebot_11-2"
       id="textPath3118-5"
       style="font-size:24px">useful</textPath></text>
  <text
     xml:space="preserve"
     style="font-size:36px;font-style:normal;font-weight:normal;line-height:125%;letter-spacing:0px;word-spacing:0px;fill:#000000;fill-opacity:1;stroke:none;font-family:Sans"
     id="text3036-5-5"
     sodipodi:linespacing="125%"
     transform="matrix(-0.5591929,0.82903755,-0.82903755,-0.5591929,638.85699,216.22155)"><textPath
       xlink:href="#imagebot_11-2-6"
       id="textPath3118-5-6"
       style="font-size:24px">common</textPath></text>
  <text
     xml:space="preserve"
     style="font-size:24.00000066px;font-style:normal;font-weight:normal;line-height:125%;letter-spacing:0px;word-spacing:0px;fill:#000000;fill-opacity:1;stroke:none;font-family:Sans"
     id="text3036-5-5-9"
     sodipodi:linespacing="125%"
     transform="matrix(-0.9993908,0.03489948,-0.03489948,-0.9993908,538.54793,535.26708)"><textPath
       xlink:href="#imagebot_11-2-6-1"
       id="textPath3118-5-6-4">unnecessary</textPath></text>
  <text
     xml:space="preserve"
     style="font-size:24.00000061px;font-style:normal;font-weight:normal;line-height:125%;letter-spacing:0px;word-spacing:0px;fill:#000000;fill-opacity:1;stroke:none;font-family:Sans"
     id="text3036-5-5-9-6"
     sodipodi:linespacing="125%"
     transform="matrix(-0.40673662,-0.91354544,0.91354544,-0.40673662,137.45941,622.21367)"><textPath
       xlink:href="#imagebot_11-2-6-1-4"
       id="textPath3118-5-6-4-6">beautiful</textPath></text>
</svg>
