<?xml version="1.0" encoding="UTF-8" standalone="no"?>
<svg
   xmlns:dc="http://purl.org/dc/elements/1.1/"
   xmlns:cc="http://creativecommons.org/ns#"
   xmlns:rdf="http://www.w3.org/1999/02/22-rdf-syntax-ns#"
   xmlns:svg="http://www.w3.org/2000/svg"
   xmlns="http://www.w3.org/2000/svg"
   xmlns:sodipodi="http://sodipodi.sourceforge.net/DTD/sodipodi-0.dtd"
   xmlns:inkscape="http://www.inkscape.org/namespaces/inkscape"
   viewBox="0 0 2.6585825 1.5000007"
   width="53.17165"
   height="30.000013"
   id="svg2"
   version="1.1"
   inkscape:version="0.91 r13725"
   sodipodi:docname="Flag_of_the_United_Kingdom.svg">
  <metadata
     id="metadata21">
    <rdf:RDF>
      <cc:Work
         rdf:about="">
        <dc:format>image/svg+xml</dc:format>
        <dc:type
           rdf:resource="http://purl.org/dc/dcmitype/StillImage" />
        <dc:title></dc:title>
      </cc:Work>
    </rdf:RDF>
  </metadata>
  <defs
     id="defs19" />
  <sodipodi:namedview
     pagecolor="#ffffff"
     bordercolor="#666666"
     borderopacity="1"
     objecttolerance="10"
     gridtolerance="10"
     guidetolerance="10"
     inkscape:pageopacity="0"
     inkscape:pageshadow="2"
     inkscape:window-width="1108"
     inkscape:window-height="715"
     id="namedview17"
     showgrid="false"
     fit-margin-top="0"
     fit-margin-left="0"
     fit-margin-right="0"
     fit-margin-bottom="0"
     inkscape:zoom="10.437893"
     inkscape:cx="26.585825"
     inkscape:cy="15.000007"
     inkscape:window-x="336"
     inkscape:window-y="52"
     inkscape:window-maximized="0"
     inkscape:current-layer="svg2" />
  <clipPath
     id="t">
    <path
       d="m 30,15 30,0 0,15 z m 0,0 0,15 -30,0 z M 30,15 0,15 0,0 Z m 0,0 0,-15 30,0 z"
       id="path5"
       inkscape:connector-curvature="0" />
  </clipPath>
  <path
     d="m 0.05690296,0.11380585 0,1.27238905 2.54477664,0 0,-1.27238905 z"
     id="path7"
     inkscape:connector-curvature="0"
     style="fill:#00247d" />
  <path
     d="M 0.05690296,0.11380585 2.6016796,1.3861949 m 0,-1.27238905 -2.54477664,1.27238905"
     id="path9"
     inkscape:connector-curvature="0"
     style="stroke:#ffffff;stroke-width:0.25447765" />
  <path
     d="M 0,0 60,30 M 60,0 0,30"
     clip-path="url(#t)"
     id="path11"
     inkscape:connector-curvature="0"
     transform="matrix(0.04241294,0,0,0.04241294,0.05690296,0.11380585)"
     style="stroke:#cf142b;stroke-width:4" />
  <path
     d="m 1.3292913,0.11380585 0,1.27238905 m -1.27238834,-0.63619405 2.54477664,0"
     id="path13"
     inkscape:connector-curvature="0"
     style="stroke:#ffffff;stroke-width:0.42412943" />
  <path
     d="m 1.3292913,0.11380585 0,1.27238905 m -1.27238834,-0.63619405 2.54477664,0"
     id="path15"
     inkscape:connector-curvature="0"
     style="stroke:#cf142b;stroke-width:0.25447765" />
</svg>
